<svg width="259" height="137" viewBox="0 0 259 137" fill="none" xmlns="http://www.w3.org/2000/svg">
<g filter="url(#filter0_d_17_65)">
<path fill-rule="evenodd" clip-rule="evenodd" d="M151.08 89.856C157.053 92.0747 163.496 93.184 170.408 93.184C178.259 93.184 185.299 91.8187 191.528 89.088C197.843 86.3574 203.133 82.3894 207.4 77.184L194.088 64.896C191.016 68.48 187.603 71.168 183.848 72.96C180.093 74.6667 175.997 75.52 171.56 75.52C167.379 75.52 163.539 74.8374 160.04 73.472C156.541 72.1067 153.512 70.144 150.952 67.584C148.392 65.024 146.387 61.9947 144.936 58.496C143.571 54.9974 142.888 51.1147 142.888 46.848C142.888 42.5814 143.571 38.6987 144.936 35.2C146.387 31.7014 148.392 28.672 150.952 26.112C153.512 23.552 156.541 21.5894 160.04 20.224C163.539 18.8587 167.379 18.176 171.56 18.176C175.997 18.176 180.093 19.072 183.848 20.864C187.603 22.5707 191.016 25.1734 194.088 28.672L207.4 16.384C203.133 11.1787 197.843 7.25335 191.528 4.60802C185.299 1.87736 178.301 0.512024 170.536 0.512024C163.539 0.512024 157.096 1.66402 151.208 3.96802C148.364 5.03962 145.689 6.34016 143.184 7.86962V2.04802H67.7919V18.944H115.928L66.7679 78.208V91.648H145.104V87.0498C146.999 88.1033 148.991 89.0387 151.08 89.856ZM130.94 74.752C128.783 71.8979 126.963 68.7832 125.48 65.408C123.091 59.776 121.896 53.5894 121.896 46.848C121.896 44.7812 122.008 42.7665 122.233 40.804L94.1379 74.752H130.94Z" fill="black"/>
</g>
<path d="M170.32 129.576C168.304 129.576 166.432 129.264 164.704 128.64C163 127.992 161.512 127.08 160.24 125.904C158.992 124.728 158.02 123.336 157.324 121.728C156.628 120.12 156.28 118.344 156.28 116.4C156.28 114.456 156.628 112.68 157.324 111.072C158.02 109.464 158.992 108.072 160.24 106.896C161.512 105.72 163 104.82 164.704 104.196C166.432 103.548 168.304 103.224 170.32 103.224C172.792 103.224 174.976 103.656 176.872 104.52C178.792 105.384 180.376 106.632 181.624 108.264L176.26 113.052C175.516 112.116 174.688 111.396 173.776 110.892C172.888 110.364 171.88 110.1 170.752 110.1C169.864 110.1 169.06 110.244 168.34 110.532C167.62 110.82 166.996 111.24 166.468 111.792C165.964 112.344 165.568 113.016 165.28 113.808C164.992 114.576 164.848 115.44 164.848 116.4C164.848 117.36 164.992 118.236 165.28 119.028C165.568 119.796 165.964 120.456 166.468 121.008C166.996 121.56 167.62 121.98 168.34 122.268C169.06 122.556 169.864 122.7 170.752 122.7C171.88 122.7 172.888 122.448 173.776 121.944C174.688 121.416 175.516 120.684 176.26 119.748L181.624 124.536C180.376 126.144 178.792 127.392 176.872 128.28C174.976 129.144 172.792 129.576 170.32 129.576ZM193.667 129.36C191.435 129.36 189.455 128.928 187.727 128.064C186.023 127.176 184.679 125.964 183.695 124.428C182.711 122.892 182.219 121.128 182.219 119.136C182.219 117.144 182.711 115.38 183.695 113.844C184.679 112.308 186.023 111.108 187.727 110.244C189.455 109.38 191.435 108.948 193.667 108.948C195.899 108.948 197.879 109.38 199.607 110.244C201.335 111.108 202.679 112.308 203.639 113.844C204.623 115.38 205.115 117.144 205.115 119.136C205.115 121.128 204.623 122.892 203.639 124.428C202.679 125.964 201.335 127.176 199.607 128.064C197.879 128.928 195.899 129.36 193.667 129.36ZM193.667 123.024C194.267 123.024 194.807 122.88 195.287 122.592C195.767 122.304 196.151 121.872 196.439 121.296C196.727 120.696 196.871 119.976 196.871 119.136C196.871 118.272 196.727 117.564 196.439 117.012C196.151 116.436 195.767 116.004 195.287 115.716C194.807 115.428 194.267 115.284 193.667 115.284C193.067 115.284 192.527 115.428 192.047 115.716C191.567 116.004 191.183 116.436 190.895 117.012C190.607 117.564 190.463 118.272 190.463 119.136C190.463 119.976 190.607 120.696 190.895 121.296C191.183 121.872 191.567 122.304 192.047 122.592C192.527 122.88 193.067 123.024 193.667 123.024ZM216.301 129.36C214.597 129.36 213.013 128.952 211.549 128.136C210.109 127.296 208.957 126.12 208.093 124.608C207.229 123.072 206.797 121.248 206.797 119.136C206.797 117.024 207.229 115.212 208.093 113.7C208.957 112.164 210.109 110.988 211.549 110.172C213.013 109.356 214.597 108.948 216.301 108.948C218.029 108.948 219.445 109.32 220.549 110.064C221.653 110.784 222.469 111.9 222.997 113.412C223.525 114.9 223.789 116.808 223.789 119.136C223.789 121.488 223.537 123.42 223.033 124.932C222.553 126.444 221.761 127.56 220.657 128.28C219.577 129 218.125 129.36 216.301 129.36ZM218.245 123.024C218.845 123.024 219.385 122.88 219.865 122.592C220.345 122.304 220.729 121.872 221.017 121.296C221.305 120.696 221.449 119.976 221.449 119.136C221.449 118.272 221.305 117.564 221.017 117.012C220.729 116.436 220.345 116.004 219.865 115.716C219.385 115.428 218.845 115.284 218.245 115.284C217.645 115.284 217.105 115.428 216.625 115.716C216.145 116.004 215.761 116.436 215.473 117.012C215.185 117.564 215.041 118.272 215.041 119.136C215.041 119.976 215.185 120.696 215.473 121.296C215.761 121.872 216.145 122.304 216.625 122.592C217.105 122.88 217.645 123.024 218.245 123.024ZM221.701 129V126.336L221.665 119.136L221.305 111.936V102.288H229.441V129H221.701ZM243.916 129.36C241.516 129.36 239.416 128.916 237.616 128.028C235.84 127.14 234.46 125.928 233.476 124.392C232.492 122.832 232 121.08 232 119.136C232 117.144 232.48 115.38 233.44 113.844C234.424 112.308 235.756 111.108 237.436 110.244C239.14 109.38 241.048 108.948 243.16 108.948C245.104 108.948 246.892 109.332 248.524 110.1C250.18 110.868 251.5 112.008 252.484 113.52C253.492 115.032 253.996 116.904 253.996 119.136C253.996 119.424 253.984 119.748 253.96 120.108C253.936 120.444 253.912 120.756 253.888 121.044H238.732V117.12H249.568L246.508 118.164C246.508 117.396 246.364 116.748 246.076 116.22C245.812 115.668 245.44 115.248 244.96 114.96C244.48 114.648 243.904 114.492 243.232 114.492C242.56 114.492 241.972 114.648 241.468 114.96C240.988 115.248 240.616 115.668 240.352 116.22C240.088 116.748 239.956 117.396 239.956 118.164V119.388C239.956 120.228 240.124 120.948 240.46 121.548C240.796 122.148 241.276 122.604 241.9 122.916C242.524 123.204 243.28 123.348 244.168 123.348C245.08 123.348 245.824 123.228 246.4 122.988C247 122.748 247.624 122.388 248.272 121.908L252.52 126.192C251.56 127.224 250.372 128.016 248.956 128.568C247.564 129.096 245.884 129.36 243.916 129.36Z" fill="black"/>
<g filter="url(#filter1_d_17_65)">
<path fill-rule="evenodd" clip-rule="evenodd" d="M4.00002 122.78V128H27.148V121.412H15.0679L26.572 108.02V102.8H4.36002V109.388H15.5042L4.00002 122.78ZM33.9349 127.028C35.7349 127.916 37.8349 128.36 40.2349 128.36C42.2029 128.36 43.8829 128.096 45.2749 127.568C46.6909 127.016 47.8789 126.224 48.8389 125.192L44.5909 120.908C43.9429 121.388 43.3189 121.748 42.7189 121.988C42.1429 122.228 41.3989 122.348 40.4869 122.348C39.5989 122.348 38.8429 122.204 38.2189 121.916C37.5949 121.604 37.1149 121.148 36.7789 120.548C36.6895 120.388 36.6121 120.22 36.5465 120.044H50.2069C50.2309 119.756 50.2549 119.444 50.2789 119.108C50.3029 118.748 50.3149 118.424 50.3149 118.136C50.3149 115.904 49.8109 114.032 48.8029 112.52C47.8189 111.008 46.4989 109.868 44.8429 109.1C43.2109 108.332 41.4229 107.948 39.4789 107.948C37.3669 107.948 35.4589 108.38 33.7549 109.244C32.0749 110.108 30.7429 111.308 29.7589 112.844C28.7989 114.38 28.3189 116.144 28.3189 118.136C28.3189 120.08 28.8109 121.832 29.7949 123.392C30.7789 124.928 32.1589 126.14 33.9349 127.028ZM36.3702 116.12C36.4362 115.789 36.5364 115.489 36.6709 115.22C36.9349 114.668 37.3069 114.248 37.7869 113.96C38.2909 113.648 38.8789 113.492 39.5509 113.492C40.2229 113.492 40.7989 113.648 41.2789 113.96C41.7589 114.248 42.1309 114.668 42.3949 115.22C42.5415 115.489 42.6508 115.789 42.7228 116.12H36.3702ZM52.8824 108.308V128H61.0184V108.308H52.8824ZM67.7926 126.416C69.3046 127.712 71.4166 128.36 74.1286 128.36C75.0886 128.36 76.0006 128.276 76.8646 128.108C77.7526 127.94 78.5086 127.676 79.1326 127.316L77.1886 121.664C76.6606 122.024 76.0486 122.204 75.3526 122.204C74.8726 122.204 74.4646 122.036 74.1286 121.7C73.8166 121.364 73.6606 120.896 73.6606 120.296V115.328H77.6926V109.388H73.6606V103.88H65.5246V109.388H62.8246V115.328H65.5246V120.368C65.5246 123.08 66.2806 125.096 67.7926 126.416ZM85.1198 127.064C86.8478 127.928 88.8278 128.36 91.0598 128.36C93.2918 128.36 95.2718 127.928 96.9998 127.064C98.7278 126.176 100.072 124.964 101.032 123.428C102.016 121.892 102.508 120.128 102.508 118.136C102.508 116.144 102.016 114.38 101.032 112.844C100.072 111.308 98.7278 110.108 96.9998 109.244C95.2718 108.38 93.2918 107.948 91.0598 107.948C88.8278 107.948 86.8478 108.38 85.1198 109.244C83.4158 110.108 82.0718 111.308 81.0878 112.844C80.1038 114.38 79.6118 116.144 79.6118 118.136C79.6118 120.128 80.1038 121.892 81.0878 123.428C82.0718 124.964 83.4158 126.176 85.1198 127.064ZM92.6798 121.592C92.1998 121.88 91.6598 122.024 91.0598 122.024C90.4598 122.024 89.9198 121.88 89.4398 121.592C88.9598 121.304 88.5758 120.872 88.2878 120.296C87.9998 119.696 87.8558 118.976 87.8558 118.136C87.8558 117.272 87.9998 116.564 88.2878 116.012C88.5758 115.436 88.9598 115.004 89.4398 114.716C89.9198 114.428 90.4598 114.284 91.0598 114.284C91.6598 114.284 92.1998 114.428 92.6798 114.716C93.1598 115.004 93.5438 115.436 93.8318 116.012C94.1198 116.564 94.2638 117.272 94.2638 118.136C94.2638 118.976 94.1198 119.696 93.8318 120.296C93.5438 120.872 93.1598 121.304 92.6798 121.592ZM109.014 127.424C110.286 128.048 111.702 128.36 113.262 128.36C114.75 128.36 116.13 128 117.402 127.28C117.932 126.976 118.412 126.605 118.842 126.168V128H126.582V108.308H118.446V117.56C118.446 118.52 118.314 119.3 118.05 119.9C117.786 120.476 117.438 120.896 117.006 121.16C116.598 121.4 116.154 121.52 115.674 121.52C114.882 121.52 114.258 121.244 113.802 120.692C113.346 120.14 113.118 119.168 113.118 117.776V108.308H104.982V119.18C104.982 121.316 105.342 123.068 106.062 124.436C106.782 125.78 107.766 126.776 109.014 127.424ZM147.975 108.884C146.751 108.26 145.383 107.948 143.871 107.948C142.263 107.948 140.799 108.32 139.479 109.064C138.913 109.389 138.397 109.785 137.931 110.253V108.308H130.191V128H138.327V118.748C138.327 117.764 138.459 116.984 138.723 116.408C139.011 115.832 139.383 115.424 139.839 115.184C140.319 114.92 140.835 114.788 141.387 114.788C142.131 114.788 142.719 115.052 143.151 115.58C143.583 116.084 143.799 116.948 143.799 118.172V128H151.935V116.768C151.935 114.704 151.575 113.024 150.855 111.728C150.159 110.432 149.199 109.484 147.975 108.884Z" fill="black"/>
</g>
<g filter="url(#filter2_i_17_65)">
<circle cx="6.5" cy="6.5" r="6.5" transform="matrix(-1 0 0 1 62.7582 93)" fill="#FF0000"/>
</g>
<path d="M41.3224 92.624C35.9464 92.624 31.8824 91.28 29.1304 88.592C26.3784 85.904 25.0024 82.032 25.0024 76.976V57.2C25.0024 55.6 24.6184 54.448 23.8504 53.744C23.0824 52.976 22.0264 52.592 20.6824 52.592H17.5144V42.8H20.6824C22.0264 42.8 23.0824 42.416 23.8504 41.648C24.6184 40.88 25.0024 39.728 25.0024 38.192V18.416C25.0024 13.296 26.3784 9.424 29.1304 6.8C31.8824 4.112 35.9464 2.768 41.3224 2.768H46.1224V12.368H44.1064C41.7384 12.368 39.9464 13.008 38.7304 14.288C37.5784 15.568 37.0024 17.36 37.0024 19.664V37.904C37.0024 40.464 36.6824 42.448 36.0424 43.856C35.4024 45.264 34.3784 46.32 32.9704 47.024C31.6264 47.664 29.8664 48.144 27.6904 48.464V46.928C29.8664 47.184 31.6264 47.664 32.9704 48.368C34.3784 49.072 35.4024 50.128 36.0424 51.536C36.6824 52.944 37.0024 54.928 37.0024 57.488V75.728C37.0024 78.032 37.5784 79.824 38.7304 81.104C39.9464 82.384 41.7384 83.024 44.1064 83.024H46.1224V92.624H41.3224Z" fill="black"/>
<path d="M229.432 92.624H224.632V83.024H226.648C229.08 83.024 230.872 82.384 232.024 81.104C233.24 79.824 233.848 78.032 233.848 75.728V57.488C233.848 54.928 234.168 52.944 234.808 51.536C235.512 50.128 236.536 49.072 237.88 48.368C239.224 47.664 240.952 47.184 243.064 46.928V48.464C240.952 48.144 239.224 47.664 237.88 47.024C236.536 46.32 235.512 45.264 234.808 43.856C234.168 42.448 233.848 40.464 233.848 37.904V19.664C233.848 17.36 233.24 15.568 232.024 14.288C230.872 13.008 229.08 12.368 226.648 12.368H224.632V2.768H229.432C234.872 2.768 238.968 4.112 241.72 6.8C244.472 9.424 245.848 13.296 245.848 18.416V38.192C245.848 39.728 246.232 40.88 247 41.648C247.768 42.416 248.792 42.8 250.072 42.8H253.336V52.592H250.072C248.792 52.592 247.768 52.976 247 53.744C246.232 54.448 245.848 55.6 245.848 57.2V76.976C245.848 82.032 244.472 85.904 241.72 88.592C238.968 91.28 234.872 92.624 229.432 92.624Z" fill="black"/>
<defs>
<filter id="filter0_d_17_65" x="62.7679" y="0.512024" width="148.632" height="100.672" filterUnits="userSpaceOnUse" color-interpolation-filters="sRGB">
<feFlood flood-opacity="0" result="BackgroundImageFix"/>
<feColorMatrix in="SourceAlpha" type="matrix" values="0 0 0 0 0 0 0 0 0 0 0 0 0 0 0 0 0 0 127 0" result="hardAlpha"/>
<feOffset dy="4"/>
<feGaussianBlur stdDeviation="2"/>
<feComposite in2="hardAlpha" operator="out"/>
<feColorMatrix type="matrix" values="0 0 0 0 0 0 0 0 0 0 0 0 0 0 0 0 0 0 0.25 0"/>
<feBlend mode="normal" in2="BackgroundImageFix" result="effect1_dropShadow_17_65"/>
<feBlend mode="normal" in="SourceGraphic" in2="effect1_dropShadow_17_65" result="shape"/>
</filter>
<filter id="filter1_d_17_65" x="0" y="102.8" width="155.935" height="33.56" filterUnits="userSpaceOnUse" color-interpolation-filters="sRGB">
<feFlood flood-opacity="0" result="BackgroundImageFix"/>
<feColorMatrix in="SourceAlpha" type="matrix" values="0 0 0 0 0 0 0 0 0 0 0 0 0 0 0 0 0 0 127 0" result="hardAlpha"/>
<feOffset dy="4"/>
<feGaussianBlur stdDeviation="2"/>
<feComposite in2="hardAlpha" operator="out"/>
<feColorMatrix type="matrix" values="0 0 0 0 0 0 0 0 0 0 0 0 0 0 0 0 0 0 0.25 0"/>
<feBlend mode="normal" in2="BackgroundImageFix" result="effect1_dropShadow_17_65"/>
<feBlend mode="normal" in="SourceGraphic" in2="effect1_dropShadow_17_65" result="shape"/>
</filter>
<filter id="filter2_i_17_65" x="49.7582" y="93" width="13" height="17" filterUnits="userSpaceOnUse" color-interpolation-filters="sRGB">
<feFlood flood-opacity="0" result="BackgroundImageFix"/>
<feBlend mode="normal" in="SourceGraphic" in2="BackgroundImageFix" result="shape"/>
<feColorMatrix in="SourceAlpha" type="matrix" values="0 0 0 0 0 0 0 0 0 0 0 0 0 0 0 0 0 0 127 0" result="hardAlpha"/>
<feOffset dy="4"/>
<feGaussianBlur stdDeviation="2"/>
<feComposite in2="hardAlpha" operator="arithmetic" k2="-1" k3="1"/>
<feColorMatrix type="matrix" values="0 0 0 0 0 0 0 0 0 0 0 0 0 0 0 0 0 0 0.25 0"/>
<feBlend mode="normal" in2="shape" result="effect1_innerShadow_17_65"/>
</filter>
</defs>
</svg>
