<svg width="263" height="141" viewBox="0 0 263 141" fill="none" xmlns="http://www.w3.org/2000/svg">
<g filter="url(#filter0_d_16_47)">
<mask id="path-1-outside-1_16_47" maskUnits="userSpaceOnUse" x="63.768" y="0.512024" width="150" height="95" fill="black">
<rect fill="white" x="63.768" y="0.512024" width="150" height="95"/>
<path fill-rule="evenodd" clip-rule="evenodd" d="M155.08 90.856C161.053 93.0747 167.496 94.184 174.408 94.184C182.259 94.184 189.299 92.8187 195.528 90.088C201.843 87.3574 207.133 83.3894 211.4 78.184L198.088 65.896C195.016 69.48 191.603 72.168 187.848 73.96C184.093 75.6667 179.997 76.52 175.56 76.52C171.379 76.52 167.539 75.8374 164.04 74.472C160.541 73.1067 157.512 71.144 154.952 68.584C152.392 66.024 150.387 62.9947 148.936 59.496C147.571 55.9974 146.888 52.1147 146.888 47.848C146.888 43.5814 147.571 39.6987 148.936 36.2C150.387 32.7014 152.392 29.672 154.952 27.112C157.512 24.552 160.541 22.5894 164.04 21.224C167.539 19.8587 171.379 19.176 175.56 19.176C179.997 19.176 184.093 20.072 187.848 21.864C191.603 23.5707 195.016 26.1734 198.088 29.672L211.4 17.384C207.133 12.1787 201.843 8.25335 195.528 5.60802C189.299 2.87736 182.301 1.51202 174.536 1.51202C167.539 1.51202 161.096 2.66402 155.208 4.96802C149.956 6.94692 145.282 9.70652 141.184 13.2468V3.04802H65.792V19.944H113.928L64.768 79.208V92.648H143.104V84.0692C146.662 86.8619 150.654 89.1241 155.08 90.856ZM134.94 75.752C132.783 72.8979 130.963 69.7832 129.48 66.408C127.091 60.776 125.896 54.5894 125.896 47.848C125.896 42.0992 126.765 36.7538 128.502 31.8117L92.1379 75.752H134.94Z"/>
</mask>
<path fill-rule="evenodd" clip-rule="evenodd" d="M155.08 90.856C161.053 93.0747 167.496 94.184 174.408 94.184C182.259 94.184 189.299 92.8187 195.528 90.088C201.843 87.3574 207.133 83.3894 211.4 78.184L198.088 65.896C195.016 69.48 191.603 72.168 187.848 73.96C184.093 75.6667 179.997 76.52 175.56 76.52C171.379 76.52 167.539 75.8374 164.04 74.472C160.541 73.1067 157.512 71.144 154.952 68.584C152.392 66.024 150.387 62.9947 148.936 59.496C147.571 55.9974 146.888 52.1147 146.888 47.848C146.888 43.5814 147.571 39.6987 148.936 36.2C150.387 32.7014 152.392 29.672 154.952 27.112C157.512 24.552 160.541 22.5894 164.04 21.224C167.539 19.8587 171.379 19.176 175.56 19.176C179.997 19.176 184.093 20.072 187.848 21.864C191.603 23.5707 195.016 26.1734 198.088 29.672L211.4 17.384C207.133 12.1787 201.843 8.25335 195.528 5.60802C189.299 2.87736 182.301 1.51202 174.536 1.51202C167.539 1.51202 161.096 2.66402 155.208 4.96802C149.956 6.94692 145.282 9.70652 141.184 13.2468V3.04802H65.792V19.944H113.928L64.768 79.208V92.648H143.104V84.0692C146.662 86.8619 150.654 89.1241 155.08 90.856ZM134.94 75.752C132.783 72.8979 130.963 69.7832 129.48 66.408C127.091 60.776 125.896 54.5894 125.896 47.848C125.896 42.0992 126.765 36.7538 128.502 31.8117L92.1379 75.752H134.94Z" fill="white"/>
<path d="M155.08 90.856L154.716 91.7873L154.724 91.7904L154.732 91.7934L155.08 90.856ZM195.528 90.088L195.131 89.1702L195.127 89.1722L195.528 90.088ZM211.4 78.184L212.173 78.8179L212.771 78.0887L212.078 77.4492L211.4 78.184ZM198.088 65.896L198.766 65.1612L198.004 64.4575L197.329 65.2452L198.088 65.896ZM187.848 73.96L188.262 74.8704L188.27 74.8665L188.279 74.8625L187.848 73.96ZM154.952 68.584L155.659 67.8769L154.952 68.584ZM148.936 59.496L148.004 59.8596L148.008 59.8693L148.012 59.879L148.936 59.496ZM148.936 36.2L148.012 35.817L148.008 35.8267L148.004 35.8365L148.936 36.2ZM154.952 27.112L155.659 27.8191V27.8191L154.952 27.112ZM187.848 21.864L187.417 22.7665L187.426 22.7705L187.434 22.7744L187.848 21.864ZM198.088 29.672L197.337 30.3318L198.013 31.1022L198.766 30.4068L198.088 29.672ZM211.4 17.384L212.078 18.1188L212.771 17.4793L212.173 16.7501L211.4 17.384ZM195.528 5.60802L195.127 6.52389L195.134 6.52719L195.142 6.53036L195.528 5.60802ZM155.208 4.96802L155.561 5.90386L155.572 5.89926L155.208 4.96802ZM141.184 13.2468H140.184V15.4323L141.838 14.0035L141.184 13.2468ZM141.184 3.04802H142.184V2.04802H141.184V3.04802ZM65.792 3.04802V2.04802H64.792V3.04802H65.792ZM65.792 19.944H64.792V20.944H65.792V19.944ZM113.928 19.944L114.697 20.5825L116.056 18.944H113.928V19.944ZM64.768 79.208L63.9983 78.5696L63.768 78.8473V79.208H64.768ZM64.768 92.648H63.768V93.648H64.768V92.648ZM143.104 92.648V93.648H144.104V92.648H143.104ZM143.104 84.0692L143.721 83.2826L142.104 82.0131V84.0692H143.104ZM134.94 75.752V76.752H136.95L135.738 75.1491L134.94 75.752ZM129.48 66.408L128.559 66.7986L128.564 66.8103L129.48 66.408ZM128.502 31.8117L129.446 32.1434L127.732 31.1741L128.502 31.8117ZM92.1379 75.752L91.3675 75.1145L90.0123 76.752H92.1379V75.752ZM174.408 93.184C167.605 93.184 161.281 92.0925 155.428 89.9186L154.732 91.7934C160.826 94.0569 167.387 95.184 174.408 95.184V93.184ZM195.127 89.1722C189.042 91.8394 182.142 93.184 174.408 93.184V95.184C182.376 95.184 189.555 93.798 195.929 91.0039L195.127 89.1722ZM210.627 77.5501C206.463 82.6293 201.303 86.5013 195.131 89.1702L195.925 91.0059C202.383 88.2134 207.803 84.1494 212.173 78.8179L210.627 77.5501ZM197.41 66.6308L210.722 78.9188L212.078 77.4492L198.766 65.1612L197.41 66.6308ZM188.279 74.8625C192.175 73.0029 195.697 70.2225 198.847 66.5468L197.329 65.2452C194.335 68.7376 191.03 71.3332 187.417 73.0575L188.279 74.8625ZM175.56 77.52C180.129 77.52 184.368 76.6405 188.262 74.8704L187.434 73.0497C183.819 74.6929 179.866 75.52 175.56 75.52V77.52ZM163.676 75.4036C167.303 76.819 171.268 77.52 175.56 77.52V75.52C171.489 75.52 167.774 74.8557 164.404 73.5404L163.676 75.4036ZM154.245 69.2911C156.906 71.9526 160.054 73.9899 163.676 75.4036L164.404 73.5404C161.029 72.2235 158.118 70.3355 155.659 67.8769L154.245 69.2911ZM148.012 59.879C149.511 63.4932 151.588 66.6341 154.245 69.2911L155.659 67.8769C153.196 65.414 151.262 62.4962 149.86 59.113L148.012 59.879ZM145.888 47.848C145.888 52.2223 146.588 56.2304 148.004 59.8596L149.868 59.1325C148.553 55.7644 147.888 52.0071 147.888 47.848H145.888ZM148.004 35.8365C146.588 39.4657 145.888 43.4738 145.888 47.848H147.888C147.888 43.689 148.553 39.9317 149.868 36.5636L148.004 35.8365ZM154.245 26.4049C151.588 29.0619 149.511 32.2028 148.012 35.817L149.86 36.583C151.262 33.1999 153.196 30.2821 155.659 27.8191L154.245 26.4049ZM163.676 20.2924C160.054 21.7061 156.906 23.7435 154.245 26.4049L155.659 27.8191C158.118 25.3606 161.029 23.4726 164.404 22.1556L163.676 20.2924ZM175.56 18.176C171.268 18.176 167.303 18.877 163.676 20.2924L164.404 22.1556C167.774 20.8403 171.489 20.176 175.56 20.176V18.176ZM188.279 20.9615C184.381 19.1011 180.136 18.176 175.56 18.176V20.176C179.858 20.176 183.806 21.0429 187.417 22.7665L188.279 20.9615ZM198.839 29.0122C195.686 25.4208 192.161 22.7261 188.262 20.9537L187.434 22.7744C191.044 24.4153 194.346 26.9259 197.337 30.3318L198.839 29.0122ZM210.722 16.6492L197.41 28.9372L198.766 30.4068L212.078 18.1188L210.722 16.6492ZM195.142 6.53036C201.308 9.11373 206.465 12.9412 210.627 18.018L212.173 16.7501C207.801 11.4162 202.377 7.39298 195.914 4.68569L195.142 6.53036ZM174.536 2.51202C182.183 2.51202 189.04 3.85604 195.127 6.52389L195.929 4.69216C189.557 1.89867 182.42 0.512024 174.536 0.512024V2.51202ZM155.572 5.89926C161.332 3.64531 167.65 2.51202 174.536 2.51202V0.512024C167.427 0.512024 160.859 1.68274 154.844 4.03677L155.572 5.89926ZM141.838 14.0035C145.843 10.5429 150.415 7.84272 155.561 5.90379L154.855 4.03225C149.498 6.05112 144.72 8.87008 140.53 12.4901L141.838 14.0035ZM140.184 3.04802V13.2468H142.184V3.04802H140.184ZM65.792 4.04802H141.184V2.04802H65.792V4.04802ZM66.792 19.944V3.04802H64.792V19.944H66.792ZM113.928 18.944H65.792V20.944H113.928V18.944ZM65.5376 79.8465L114.697 20.5825L113.158 19.3056L63.9983 78.5696L65.5376 79.8465ZM65.768 92.648V79.208H63.768V92.648H65.768ZM143.104 91.648H64.768V93.648H143.104V91.648ZM142.104 84.0692V92.648H144.104V84.0692H142.104ZM155.444 89.9248C151.105 88.2267 147.199 86.0119 143.721 83.2826L142.487 84.8558C146.125 87.7118 150.203 90.0216 154.716 91.7873L155.444 89.9248ZM135.738 75.1491C133.629 72.3588 131.848 69.3118 130.395 66.0057L128.564 66.8103C130.078 70.2545 131.937 73.4369 134.143 76.355L135.738 75.1491ZM130.401 66.0175C128.069 60.5211 126.896 54.4689 126.896 47.848H124.896C124.896 54.7098 126.113 61.031 128.559 66.7986L130.401 66.0175ZM126.896 47.848C126.896 42.2012 127.749 36.969 129.446 32.1434L127.559 31.48C125.78 36.5385 124.896 41.9972 124.896 47.848H126.896ZM127.732 31.1741L91.3675 75.1145L92.9083 76.3896L129.273 32.4493L127.732 31.1741ZM92.1379 76.752H134.94V74.752H92.1379V76.752Z" fill="black" mask="url(#path-1-outside-1_16_47)"/>
</g>
<g filter="url(#filter1_d_16_47)">
<mask id="path-3-outside-2_16_47" maskUnits="userSpaceOnUse" x="156" y="104" width="100" height="30" fill="black">
<rect fill="white" x="156" y="104" width="100" height="30"/>
<path d="M171.32 132.576C169.304 132.576 167.432 132.264 165.704 131.64C164 130.992 162.512 130.08 161.24 128.904C159.992 127.728 159.02 126.336 158.324 124.728C157.628 123.12 157.28 121.344 157.28 119.4C157.28 117.456 157.628 115.68 158.324 114.072C159.02 112.464 159.992 111.072 161.24 109.896C162.512 108.72 164 107.82 165.704 107.196C167.432 106.548 169.304 106.224 171.32 106.224C173.792 106.224 175.976 106.656 177.872 107.52C179.792 108.384 181.376 109.632 182.624 111.264L177.26 116.052C176.516 115.116 175.688 114.396 174.776 113.892C173.888 113.364 172.88 113.1 171.752 113.1C170.864 113.1 170.06 113.244 169.34 113.532C168.62 113.82 167.996 114.24 167.468 114.792C166.964 115.344 166.568 116.016 166.28 116.808C165.992 117.576 165.848 118.44 165.848 119.4C165.848 120.36 165.992 121.236 166.28 122.028C166.568 122.796 166.964 123.456 167.468 124.008C167.996 124.56 168.62 124.98 169.34 125.268C170.06 125.556 170.864 125.7 171.752 125.7C172.88 125.7 173.888 125.448 174.776 124.944C175.688 124.416 176.516 123.684 177.26 122.748L182.624 127.536C181.376 129.144 179.792 130.392 177.872 131.28C175.976 132.144 173.792 132.576 171.32 132.576ZM194.667 132.36C192.435 132.36 190.455 131.928 188.727 131.064C187.023 130.176 185.679 128.964 184.695 127.428C183.711 125.892 183.219 124.128 183.219 122.136C183.219 120.144 183.711 118.38 184.695 116.844C185.679 115.308 187.023 114.108 188.727 113.244C190.455 112.38 192.435 111.948 194.667 111.948C196.899 111.948 198.879 112.38 200.607 113.244C202.335 114.108 203.679 115.308 204.639 116.844C205.623 118.38 206.115 120.144 206.115 122.136C206.115 124.128 205.623 125.892 204.639 127.428C203.679 128.964 202.335 130.176 200.607 131.064C198.879 131.928 196.899 132.36 194.667 132.36ZM194.667 126.024C195.267 126.024 195.807 125.88 196.287 125.592C196.767 125.304 197.151 124.872 197.439 124.296C197.727 123.696 197.871 122.976 197.871 122.136C197.871 121.272 197.727 120.564 197.439 120.012C197.151 119.436 196.767 119.004 196.287 118.716C195.807 118.428 195.267 118.284 194.667 118.284C194.067 118.284 193.527 118.428 193.047 118.716C192.567 119.004 192.183 119.436 191.895 120.012C191.607 120.564 191.463 121.272 191.463 122.136C191.463 122.976 191.607 123.696 191.895 124.296C192.183 124.872 192.567 125.304 193.047 125.592C193.527 125.88 194.067 126.024 194.667 126.024ZM217.301 132.36C215.597 132.36 214.013 131.952 212.549 131.136C211.109 130.296 209.957 129.12 209.093 127.608C208.229 126.072 207.797 124.248 207.797 122.136C207.797 120.024 208.229 118.212 209.093 116.7C209.957 115.164 211.109 113.988 212.549 113.172C214.013 112.356 215.597 111.948 217.301 111.948C219.029 111.948 220.445 112.32 221.549 113.064C222.653 113.784 223.469 114.9 223.997 116.412C224.525 117.9 224.789 119.808 224.789 122.136C224.789 124.488 224.537 126.42 224.033 127.932C223.553 129.444 222.761 130.56 221.657 131.28C220.577 132 219.125 132.36 217.301 132.36ZM219.245 126.024C219.845 126.024 220.385 125.88 220.865 125.592C221.345 125.304 221.729 124.872 222.017 124.296C222.305 123.696 222.449 122.976 222.449 122.136C222.449 121.272 222.305 120.564 222.017 120.012C221.729 119.436 221.345 119.004 220.865 118.716C220.385 118.428 219.845 118.284 219.245 118.284C218.645 118.284 218.105 118.428 217.625 118.716C217.145 119.004 216.761 119.436 216.473 120.012C216.185 120.564 216.041 121.272 216.041 122.136C216.041 122.976 216.185 123.696 216.473 124.296C216.761 124.872 217.145 125.304 217.625 125.592C218.105 125.88 218.645 126.024 219.245 126.024ZM222.701 132V129.336L222.665 122.136L222.305 114.936V105.288H230.441V132H222.701ZM244.916 132.36C242.516 132.36 240.416 131.916 238.616 131.028C236.84 130.14 235.46 128.928 234.476 127.392C233.492 125.832 233 124.08 233 122.136C233 120.144 233.48 118.38 234.44 116.844C235.424 115.308 236.756 114.108 238.436 113.244C240.14 112.38 242.048 111.948 244.16 111.948C246.104 111.948 247.892 112.332 249.524 113.1C251.18 113.868 252.5 115.008 253.484 116.52C254.492 118.032 254.996 119.904 254.996 122.136C254.996 122.424 254.984 122.748 254.96 123.108C254.936 123.444 254.912 123.756 254.888 124.044H239.732V120.12H250.568L247.508 121.164C247.508 120.396 247.364 119.748 247.076 119.22C246.812 118.668 246.44 118.248 245.96 117.96C245.48 117.648 244.904 117.492 244.232 117.492C243.56 117.492 242.972 117.648 242.468 117.96C241.988 118.248 241.616 118.668 241.352 119.22C241.088 119.748 240.956 120.396 240.956 121.164V122.388C240.956 123.228 241.124 123.948 241.46 124.548C241.796 125.148 242.276 125.604 242.9 125.916C243.524 126.204 244.28 126.348 245.168 126.348C246.08 126.348 246.824 126.228 247.4 125.988C248 125.748 248.624 125.388 249.272 124.908L253.52 129.192C252.56 130.224 251.372 131.016 249.956 131.568C248.564 132.096 246.884 132.36 244.916 132.36Z"/>
</mask>
<path d="M171.32 132.576C169.304 132.576 167.432 132.264 165.704 131.64C164 130.992 162.512 130.08 161.24 128.904C159.992 127.728 159.02 126.336 158.324 124.728C157.628 123.12 157.28 121.344 157.28 119.4C157.28 117.456 157.628 115.68 158.324 114.072C159.02 112.464 159.992 111.072 161.24 109.896C162.512 108.72 164 107.82 165.704 107.196C167.432 106.548 169.304 106.224 171.32 106.224C173.792 106.224 175.976 106.656 177.872 107.52C179.792 108.384 181.376 109.632 182.624 111.264L177.26 116.052C176.516 115.116 175.688 114.396 174.776 113.892C173.888 113.364 172.88 113.1 171.752 113.1C170.864 113.1 170.06 113.244 169.34 113.532C168.62 113.82 167.996 114.24 167.468 114.792C166.964 115.344 166.568 116.016 166.28 116.808C165.992 117.576 165.848 118.44 165.848 119.4C165.848 120.36 165.992 121.236 166.28 122.028C166.568 122.796 166.964 123.456 167.468 124.008C167.996 124.56 168.62 124.98 169.34 125.268C170.06 125.556 170.864 125.7 171.752 125.7C172.88 125.7 173.888 125.448 174.776 124.944C175.688 124.416 176.516 123.684 177.26 122.748L182.624 127.536C181.376 129.144 179.792 130.392 177.872 131.28C175.976 132.144 173.792 132.576 171.32 132.576ZM194.667 132.36C192.435 132.36 190.455 131.928 188.727 131.064C187.023 130.176 185.679 128.964 184.695 127.428C183.711 125.892 183.219 124.128 183.219 122.136C183.219 120.144 183.711 118.38 184.695 116.844C185.679 115.308 187.023 114.108 188.727 113.244C190.455 112.38 192.435 111.948 194.667 111.948C196.899 111.948 198.879 112.38 200.607 113.244C202.335 114.108 203.679 115.308 204.639 116.844C205.623 118.38 206.115 120.144 206.115 122.136C206.115 124.128 205.623 125.892 204.639 127.428C203.679 128.964 202.335 130.176 200.607 131.064C198.879 131.928 196.899 132.36 194.667 132.36ZM194.667 126.024C195.267 126.024 195.807 125.88 196.287 125.592C196.767 125.304 197.151 124.872 197.439 124.296C197.727 123.696 197.871 122.976 197.871 122.136C197.871 121.272 197.727 120.564 197.439 120.012C197.151 119.436 196.767 119.004 196.287 118.716C195.807 118.428 195.267 118.284 194.667 118.284C194.067 118.284 193.527 118.428 193.047 118.716C192.567 119.004 192.183 119.436 191.895 120.012C191.607 120.564 191.463 121.272 191.463 122.136C191.463 122.976 191.607 123.696 191.895 124.296C192.183 124.872 192.567 125.304 193.047 125.592C193.527 125.88 194.067 126.024 194.667 126.024ZM217.301 132.36C215.597 132.36 214.013 131.952 212.549 131.136C211.109 130.296 209.957 129.12 209.093 127.608C208.229 126.072 207.797 124.248 207.797 122.136C207.797 120.024 208.229 118.212 209.093 116.7C209.957 115.164 211.109 113.988 212.549 113.172C214.013 112.356 215.597 111.948 217.301 111.948C219.029 111.948 220.445 112.32 221.549 113.064C222.653 113.784 223.469 114.9 223.997 116.412C224.525 117.9 224.789 119.808 224.789 122.136C224.789 124.488 224.537 126.42 224.033 127.932C223.553 129.444 222.761 130.56 221.657 131.28C220.577 132 219.125 132.36 217.301 132.36ZM219.245 126.024C219.845 126.024 220.385 125.88 220.865 125.592C221.345 125.304 221.729 124.872 222.017 124.296C222.305 123.696 222.449 122.976 222.449 122.136C222.449 121.272 222.305 120.564 222.017 120.012C221.729 119.436 221.345 119.004 220.865 118.716C220.385 118.428 219.845 118.284 219.245 118.284C218.645 118.284 218.105 118.428 217.625 118.716C217.145 119.004 216.761 119.436 216.473 120.012C216.185 120.564 216.041 121.272 216.041 122.136C216.041 122.976 216.185 123.696 216.473 124.296C216.761 124.872 217.145 125.304 217.625 125.592C218.105 125.88 218.645 126.024 219.245 126.024ZM222.701 132V129.336L222.665 122.136L222.305 114.936V105.288H230.441V132H222.701ZM244.916 132.36C242.516 132.36 240.416 131.916 238.616 131.028C236.84 130.14 235.46 128.928 234.476 127.392C233.492 125.832 233 124.08 233 122.136C233 120.144 233.48 118.38 234.44 116.844C235.424 115.308 236.756 114.108 238.436 113.244C240.14 112.38 242.048 111.948 244.16 111.948C246.104 111.948 247.892 112.332 249.524 113.1C251.18 113.868 252.5 115.008 253.484 116.52C254.492 118.032 254.996 119.904 254.996 122.136C254.996 122.424 254.984 122.748 254.96 123.108C254.936 123.444 254.912 123.756 254.888 124.044H239.732V120.12H250.568L247.508 121.164C247.508 120.396 247.364 119.748 247.076 119.22C246.812 118.668 246.44 118.248 245.96 117.96C245.48 117.648 244.904 117.492 244.232 117.492C243.56 117.492 242.972 117.648 242.468 117.96C241.988 118.248 241.616 118.668 241.352 119.22C241.088 119.748 240.956 120.396 240.956 121.164V122.388C240.956 123.228 241.124 123.948 241.46 124.548C241.796 125.148 242.276 125.604 242.9 125.916C243.524 126.204 244.28 126.348 245.168 126.348C246.08 126.348 246.824 126.228 247.4 125.988C248 125.748 248.624 125.388 249.272 124.908L253.52 129.192C252.56 130.224 251.372 131.016 249.956 131.568C248.564 132.096 246.884 132.36 244.916 132.36Z" fill="white"/>
<path d="M165.704 131.64L165.349 132.575L165.357 132.578L165.365 132.581L165.704 131.64ZM161.24 128.904L160.554 129.632L160.561 129.638L161.24 128.904ZM158.324 124.728L157.407 125.125L158.324 124.728ZM158.324 114.072L157.407 113.675H157.407L158.324 114.072ZM161.24 109.896L160.561 109.162L160.555 109.168L161.24 109.896ZM165.704 107.196L166.048 108.135L166.055 108.132L165.704 107.196ZM177.872 107.52L177.458 108.43L177.462 108.432L177.872 107.52ZM182.624 111.264L183.29 112.01L183.982 111.393L183.419 110.657L182.624 111.264ZM177.26 116.052L176.478 116.674L177.136 117.503L177.926 116.798L177.26 116.052ZM174.776 113.892L174.265 114.752L174.279 114.76L174.293 114.767L174.776 113.892ZM169.34 113.532L169.712 114.46L169.712 114.46L169.34 113.532ZM167.468 114.792L166.746 114.101L166.738 114.109L166.73 114.118L167.468 114.792ZM166.28 116.808L167.217 117.159L167.22 117.15L166.28 116.808ZM166.28 122.028L165.34 122.37L165.344 122.379L166.28 122.028ZM167.468 124.008L166.73 124.682L166.738 124.691L166.746 124.699L167.468 124.008ZM169.34 125.268L168.969 126.196H168.969L169.34 125.268ZM174.776 124.944L175.27 125.814L175.277 125.809L174.776 124.944ZM177.26 122.748L177.926 122.002L177.136 121.297L176.478 122.126L177.26 122.748ZM182.624 127.536L183.414 128.149L183.987 127.412L183.29 126.79L182.624 127.536ZM177.872 131.28L178.287 132.19L178.292 132.188L177.872 131.28ZM171.32 131.576C169.409 131.576 167.653 131.28 166.044 130.699L165.365 132.581C167.212 133.248 169.2 133.576 171.32 133.576V131.576ZM166.06 130.705C164.469 130.1 163.092 129.254 161.919 128.17L160.561 129.638C161.932 130.906 163.532 131.884 165.349 132.575L166.06 130.705ZM161.926 128.176C160.779 127.096 159.885 125.817 159.242 124.331L157.407 125.125C158.155 126.855 159.205 128.36 160.555 129.632L161.926 128.176ZM159.242 124.331C158.606 122.861 158.28 121.222 158.28 119.4H156.28C156.28 121.466 156.651 123.379 157.407 125.125L159.242 124.331ZM158.28 119.4C158.28 117.578 158.606 115.939 159.242 114.469L157.407 113.675C156.651 115.421 156.28 117.334 156.28 119.4H158.28ZM159.242 114.469C159.885 112.983 160.779 111.704 161.926 110.624L160.555 109.168C159.205 110.44 158.155 111.945 157.407 113.675L159.242 114.469ZM161.919 110.63C163.09 109.548 164.462 108.716 166.048 108.135L165.36 106.257C163.538 106.924 161.935 107.892 160.561 109.162L161.919 110.63ZM166.055 108.132C167.661 107.53 169.413 107.224 171.32 107.224V105.224C169.196 105.224 167.203 105.566 165.353 106.26L166.055 108.132ZM171.32 107.224C173.676 107.224 175.714 107.635 177.458 108.43L178.287 106.61C176.239 105.677 173.909 105.224 171.32 105.224V107.224ZM177.462 108.432C179.235 109.23 180.685 110.375 181.83 111.871L183.419 110.657C182.067 108.889 180.35 107.538 178.283 106.608L177.462 108.432ZM181.958 110.518L176.594 115.306L177.926 116.798L183.29 112.01L181.958 110.518ZM178.043 115.43C177.229 114.406 176.303 113.593 175.26 113.017L174.293 114.767C175.073 115.199 175.804 115.826 176.478 116.674L178.043 115.43ZM175.287 113.032C174.231 112.404 173.043 112.1 171.752 112.1V114.1C172.717 114.1 173.546 114.324 174.265 114.752L175.287 113.032ZM171.752 112.1C170.755 112.1 169.823 112.262 168.969 112.604L169.712 114.46C170.298 114.226 170.973 114.1 171.752 114.1V112.1ZM168.969 112.604C168.118 112.944 167.374 113.444 166.746 114.101L168.191 115.483C168.619 115.036 169.122 114.696 169.712 114.46L168.969 112.604ZM166.73 114.118C166.127 114.778 165.668 115.567 165.341 116.466L167.22 117.15C167.469 116.465 167.802 115.91 168.207 115.466L166.73 114.118ZM165.344 116.457C165.007 117.355 164.848 118.34 164.848 119.4H166.848C166.848 118.54 166.977 117.797 167.217 117.159L165.344 116.457ZM164.848 119.4C164.848 120.461 165.008 121.454 165.341 122.37L167.22 121.686C166.977 121.018 166.848 120.259 166.848 119.4H164.848ZM165.344 122.379C165.672 123.255 166.132 124.027 166.73 124.682L168.207 123.334C167.797 122.885 167.464 122.337 167.217 121.677L165.344 122.379ZM166.746 124.699C167.374 125.356 168.118 125.856 168.969 126.196L169.712 124.34C169.122 124.104 168.619 123.764 168.191 123.317L166.746 124.699ZM168.969 126.196C169.823 126.538 170.755 126.7 171.752 126.7V124.7C170.973 124.7 170.298 124.574 169.712 124.34L168.969 126.196ZM171.752 126.7C173.035 126.7 174.216 126.412 175.27 125.814L174.283 124.074C173.561 124.484 172.726 124.7 171.752 124.7V126.7ZM175.277 125.809C176.311 125.211 177.232 124.391 178.043 123.37L176.478 122.126C175.801 122.977 175.065 123.621 174.275 124.079L175.277 125.809ZM176.594 123.494L181.958 128.282L183.29 126.79L177.926 122.002L176.594 123.494ZM181.834 126.923C180.688 128.399 179.233 129.549 177.453 130.372L178.292 132.188C180.351 131.235 182.064 129.889 183.414 128.149L181.834 126.923ZM177.458 130.37C175.714 131.165 173.676 131.576 171.32 131.576V133.576C173.909 133.576 176.239 133.123 178.287 132.19L177.458 130.37ZM188.727 131.064L188.265 131.951L188.272 131.955L188.28 131.958L188.727 131.064ZM184.695 127.428L183.853 127.967L184.695 127.428ZM184.695 116.844L183.853 116.305V116.305L184.695 116.844ZM188.727 113.244L188.28 112.35L188.275 112.352L188.727 113.244ZM200.607 113.244L200.16 114.138L200.607 113.244ZM204.639 116.844L203.791 117.374L203.797 117.383L204.639 116.844ZM204.639 127.428L203.797 126.889L203.791 126.898L204.639 127.428ZM200.607 131.064L201.054 131.958L201.064 131.953L200.607 131.064ZM196.287 125.592L195.772 124.735L196.287 125.592ZM197.439 124.296L198.333 124.743L198.337 124.736L198.34 124.729L197.439 124.296ZM197.439 120.012L196.544 120.459L196.548 120.467L196.552 120.475L197.439 120.012ZM196.287 118.716L195.772 119.573V119.573L196.287 118.716ZM193.047 118.716L192.532 117.859V117.859L193.047 118.716ZM191.895 120.012L192.781 120.475L192.785 120.467L192.789 120.459L191.895 120.012ZM191.895 124.296L190.993 124.729L190.997 124.736L191 124.743L191.895 124.296ZM193.047 125.592L192.532 126.449V126.449L193.047 125.592ZM194.667 131.36C192.566 131.36 190.743 130.954 189.174 130.17L188.28 131.958C190.167 132.902 192.304 133.36 194.667 133.36V131.36ZM189.189 130.177C187.631 129.365 186.422 128.27 185.537 126.889L183.853 127.967C184.936 129.658 186.415 130.987 188.265 131.951L189.189 130.177ZM185.537 126.889C184.666 125.528 184.219 123.955 184.219 122.136H182.219C182.219 124.301 182.756 126.256 183.853 127.967L185.537 126.889ZM184.219 122.136C184.219 120.317 184.666 118.744 185.537 117.383L183.853 116.305C182.756 118.016 182.219 119.971 182.219 122.136H184.219ZM185.537 117.383C186.42 116.005 187.626 114.923 189.179 114.136L188.275 112.352C186.419 113.293 184.938 114.611 183.853 116.305L185.537 117.383ZM189.174 114.138C190.743 113.354 192.566 112.948 194.667 112.948V110.948C192.304 110.948 190.167 111.406 188.28 112.35L189.174 114.138ZM194.667 112.948C196.768 112.948 198.591 113.354 200.16 114.138L201.054 112.35C199.167 111.406 197.03 110.948 194.667 110.948V112.948ZM200.16 114.138C201.735 114.926 202.935 116.005 203.791 117.374L205.487 116.314C204.423 114.611 202.935 113.29 201.054 112.35L200.16 114.138ZM203.797 117.383C204.668 118.744 205.115 120.317 205.115 122.136H207.115C207.115 119.971 206.578 118.016 205.481 116.305L203.797 117.383ZM205.115 122.136C205.115 123.955 204.668 125.528 203.797 126.889L205.481 127.967C206.578 126.256 207.115 124.301 207.115 122.136H205.115ZM203.791 126.898C202.933 128.27 201.73 129.363 200.15 130.175L201.064 131.953C202.94 130.989 204.424 129.658 205.487 127.958L203.791 126.898ZM200.16 130.17C198.591 130.954 196.768 131.36 194.667 131.36V133.36C197.03 133.36 199.167 132.902 201.054 131.958L200.16 130.17ZM194.667 127.024C195.435 127.024 196.155 126.837 196.801 126.449L195.772 124.735C195.459 124.923 195.099 125.024 194.667 125.024V127.024ZM196.801 126.449C197.468 126.05 197.973 125.463 198.333 124.743L196.544 123.849C196.328 124.281 196.066 124.558 195.772 124.735L196.801 126.449ZM198.34 124.729C198.708 123.963 198.871 123.088 198.871 122.136H196.871C196.871 122.864 196.746 123.429 196.537 123.863L198.34 124.729ZM198.871 122.136C198.871 121.17 198.711 120.289 198.325 119.549L196.552 120.475C196.743 120.839 196.871 121.374 196.871 122.136H198.871ZM198.333 119.565C197.973 118.845 197.468 118.258 196.801 117.859L195.772 119.573C196.066 119.75 196.328 120.027 196.544 120.459L198.333 119.565ZM196.801 117.859C196.155 117.471 195.435 117.284 194.667 117.284V119.284C195.099 119.284 195.459 119.385 195.772 119.573L196.801 117.859ZM194.667 117.284C193.899 117.284 193.179 117.471 192.532 117.859L193.561 119.573C193.875 119.385 194.235 119.284 194.667 119.284V117.284ZM192.532 117.859C191.866 118.258 191.36 118.845 191 119.565L192.789 120.459C193.005 120.027 193.268 119.75 193.561 119.573L192.532 117.859ZM191.008 119.549C190.623 120.289 190.463 121.17 190.463 122.136H192.463C192.463 121.374 192.591 120.839 192.781 120.475L191.008 119.549ZM190.463 122.136C190.463 123.088 190.626 123.963 190.993 124.729L192.796 123.863C192.588 123.429 192.463 122.864 192.463 122.136H190.463ZM191 124.743C191.36 125.463 191.866 126.05 192.532 126.449L193.561 124.735C193.268 124.558 193.005 124.281 192.789 123.849L191 124.743ZM192.532 126.449C193.179 126.837 193.899 127.024 194.667 127.024V125.024C194.235 125.024 193.875 124.923 193.561 124.735L192.532 126.449ZM212.549 131.136L212.045 132L212.054 132.005L212.062 132.009L212.549 131.136ZM209.093 127.608L208.222 128.098L208.225 128.104L209.093 127.608ZM209.093 116.7L209.962 117.196L209.965 117.19L209.093 116.7ZM212.549 113.172L212.062 112.298L212.056 112.302L212.549 113.172ZM221.549 113.064L220.99 113.893L220.997 113.897L221.003 113.902L221.549 113.064ZM223.997 116.412L223.053 116.742L223.055 116.746L223.997 116.412ZM224.033 127.932L223.085 127.616L223.082 127.623L223.08 127.629L224.033 127.932ZM221.657 131.28L221.111 130.442L221.103 130.448L221.657 131.28ZM220.865 125.592L221.38 126.449V126.449L220.865 125.592ZM222.017 124.296L222.912 124.743L222.915 124.736L222.919 124.729L222.017 124.296ZM222.017 120.012L221.123 120.459L221.127 120.467L221.131 120.475L222.017 120.012ZM220.865 118.716L221.38 117.859V117.859L220.865 118.716ZM217.625 118.716L218.14 119.573V119.573L217.625 118.716ZM216.473 120.012L217.36 120.475L217.364 120.467L217.368 120.459L216.473 120.012ZM216.473 124.296L215.572 124.729L215.575 124.736L215.579 124.743L216.473 124.296ZM217.625 125.592L218.14 124.735L217.625 125.592ZM222.701 132H221.701V133H222.701V132ZM222.701 129.336L223.701 129.336L223.701 129.331L222.701 129.336ZM222.665 122.136L223.665 122.131L223.665 122.109L223.664 122.086L222.665 122.136ZM222.305 114.936H221.305V114.961L221.307 114.986L222.305 114.936ZM222.305 105.288V104.288H221.305V105.288H222.305ZM230.441 105.288H231.441V104.288H230.441V105.288ZM230.441 132V133H231.441V132H230.441ZM217.301 131.36C215.765 131.36 214.349 130.994 213.036 130.263L212.062 132.009C213.678 132.91 215.43 133.36 217.301 133.36V131.36ZM213.053 130.272C211.772 129.525 210.743 128.479 209.962 127.112L208.225 128.104C209.172 129.761 210.447 131.067 212.045 132L213.053 130.272ZM209.965 127.118C209.2 125.759 208.797 124.11 208.797 122.136H206.797C206.797 124.386 207.258 126.385 208.222 128.098L209.965 127.118ZM208.797 122.136C208.797 120.161 209.201 118.528 209.962 117.196L208.225 116.204C207.258 117.896 206.797 119.887 206.797 122.136H208.797ZM209.965 117.19C210.746 115.802 211.771 114.762 213.042 114.042L212.056 112.302C210.448 113.214 209.169 114.526 208.222 116.21L209.965 117.19ZM213.036 114.045C214.349 113.314 215.765 112.948 217.301 112.948V110.948C215.43 110.948 213.678 111.398 212.062 112.299L213.036 114.045ZM217.301 112.948C218.889 112.948 220.094 113.289 220.99 113.893L222.108 112.235C220.796 111.351 219.17 110.948 217.301 110.948V112.948ZM221.003 113.902C221.885 114.477 222.582 115.392 223.053 116.742L224.941 116.082C224.357 114.408 223.422 113.091 222.096 112.226L221.003 113.902ZM223.055 116.746C223.531 118.089 223.789 119.873 223.789 122.136H225.789C225.789 119.743 225.519 117.711 224.94 116.078L223.055 116.746ZM223.789 122.136C223.789 124.427 223.543 126.242 223.085 127.616L224.982 128.248C225.532 126.598 225.789 124.549 225.789 122.136H223.789ZM223.08 127.629C222.655 128.968 221.985 129.873 221.111 130.442L222.204 132.118C223.538 131.247 224.451 129.92 224.986 128.235L223.08 127.629ZM221.103 130.448C220.241 131.022 219.005 131.36 217.301 131.36V133.36C219.246 133.36 220.914 132.978 222.212 132.112L221.103 130.448ZM219.245 127.024C220.013 127.024 220.733 126.837 221.38 126.449L220.351 124.735C220.037 124.923 219.678 125.024 219.245 125.024V127.024ZM221.38 126.449C222.046 126.05 222.552 125.463 222.912 124.743L221.123 123.849C220.907 124.281 220.644 124.558 220.351 124.735L221.38 126.449ZM222.919 124.729C223.286 123.963 223.449 123.088 223.449 122.136H221.449C221.449 122.864 221.324 123.429 221.116 123.863L222.919 124.729ZM223.449 122.136C223.449 121.17 223.29 120.289 222.904 119.549L221.131 120.475C221.321 120.839 221.449 121.374 221.449 122.136H223.449ZM222.912 119.565C222.552 118.845 222.046 118.258 221.38 117.859L220.351 119.573C220.644 119.75 220.907 120.027 221.123 120.459L222.912 119.565ZM221.38 117.859C220.733 117.471 220.013 117.284 219.245 117.284V119.284C219.678 119.284 220.037 119.385 220.351 119.573L221.38 117.859ZM219.245 117.284C218.478 117.284 217.757 117.471 217.111 117.859L218.14 119.573C218.453 119.385 218.813 119.284 219.245 119.284V117.284ZM217.111 117.859C216.444 118.258 215.939 118.845 215.579 119.565L217.368 120.459C217.584 120.027 217.846 119.75 218.14 119.573L217.111 117.859ZM215.587 119.549C215.201 120.289 215.041 121.17 215.041 122.136H217.041C217.041 121.374 217.17 120.839 217.36 120.475L215.587 119.549ZM215.041 122.136C215.041 123.088 215.204 123.963 215.572 124.729L217.375 123.863C217.166 123.429 217.041 122.864 217.041 122.136H215.041ZM215.579 124.743C215.939 125.463 216.444 126.05 217.111 126.449L218.14 124.735C217.846 124.558 217.584 124.281 217.368 123.849L215.579 124.743ZM217.111 126.449C217.757 126.837 218.478 127.024 219.245 127.024V125.024C218.813 125.024 218.453 124.923 218.14 124.735L217.111 126.449ZM223.701 132V129.336H221.701V132H223.701ZM223.701 129.331L223.665 122.131L221.665 122.141L221.701 129.341L223.701 129.331ZM223.664 122.086L223.304 114.886L221.307 114.986L221.667 122.186L223.664 122.086ZM223.305 114.936V105.288H221.305V114.936H223.305ZM222.305 106.288H230.441V104.288H222.305V106.288ZM229.441 105.288V132H231.441V105.288H229.441ZM230.441 131H222.701V133H230.441V131ZM238.616 131.028L238.169 131.922L238.174 131.925L238.616 131.028ZM234.476 127.392L233.63 127.926L233.634 127.931L234.476 127.392ZM234.44 116.844L233.598 116.305L233.592 116.314L234.44 116.844ZM238.436 113.244L237.984 112.352L237.979 112.355L238.436 113.244ZM249.524 113.1L249.098 114.005L249.103 114.007L249.524 113.1ZM253.484 116.52L252.646 117.065L252.652 117.075L253.484 116.52ZM254.96 123.108L255.958 123.179L255.958 123.175L254.96 123.108ZM254.888 124.044V125.044H255.808L255.885 124.127L254.888 124.044ZM239.732 124.044H238.732V125.044H239.732V124.044ZM239.732 120.12V119.12H238.732V120.12H239.732ZM250.568 120.12L250.891 121.066L250.568 119.12V120.12ZM247.508 121.164H246.508V122.562L247.831 122.11L247.508 121.164ZM247.076 119.22L246.174 119.651L246.185 119.675L246.198 119.699L247.076 119.22ZM245.96 117.96L245.415 118.798L245.43 118.808L245.446 118.817L245.96 117.96ZM242.468 117.96L242.983 118.818L242.994 118.81L242.468 117.96ZM241.352 119.22L242.247 119.667L242.25 119.659L242.254 119.651L241.352 119.22ZM241.46 124.548L242.333 124.059V124.059L241.46 124.548ZM242.9 125.916L242.453 126.81L242.467 126.817L242.481 126.824L242.9 125.916ZM247.4 125.988L247.029 125.06L247.022 125.062L247.016 125.065L247.4 125.988ZM249.272 124.908L249.982 124.204L249.373 123.589L248.677 124.104L249.272 124.908ZM253.52 129.192L254.252 129.873L254.906 129.17L254.23 128.488L253.52 129.192ZM249.956 131.568L250.311 132.503L250.319 132.5L249.956 131.568ZM244.916 131.36C242.64 131.36 240.697 130.939 239.059 130.131L238.174 131.925C240.136 132.893 242.392 133.36 244.916 133.36V131.36ZM239.063 130.134C237.434 129.319 236.196 128.224 235.318 126.853L233.634 127.931C234.724 129.632 236.246 130.961 238.169 131.922L239.063 130.134ZM235.322 126.858C234.444 125.467 234 123.902 234 122.136H232C232 124.258 232.54 126.197 233.63 127.926L235.322 126.858ZM234 122.136C234 120.312 234.437 118.735 235.288 117.374L233.592 116.314C232.523 118.025 232 119.976 232 122.136H234ZM235.282 117.383C236.168 116.001 237.364 114.92 238.893 114.133L237.979 112.355C236.148 113.296 234.681 114.615 233.598 116.305L235.282 117.383ZM238.888 114.136C240.438 113.35 242.188 112.948 244.16 112.948V110.948C241.908 110.948 239.842 111.41 237.984 112.352L238.888 114.136ZM244.16 112.948C245.969 112.948 247.61 113.304 249.098 114.005L249.95 112.195C248.175 111.36 246.24 110.948 244.16 110.948V112.948ZM249.103 114.007C250.591 114.697 251.766 115.713 252.646 117.065L254.322 115.975C253.235 114.303 251.769 113.039 249.945 112.193L249.103 114.007ZM252.652 117.075C253.528 118.388 253.996 120.056 253.996 122.136H255.996C255.996 119.752 255.456 117.676 254.316 115.965L252.652 117.075ZM253.996 122.136C253.996 122.397 253.985 122.698 253.962 123.041L255.958 123.175C255.983 122.798 255.996 122.451 255.996 122.136H253.996ZM253.963 123.037C253.939 123.369 253.915 123.677 253.892 123.961L255.885 124.127C255.909 123.835 255.933 123.519 255.958 123.179L253.963 123.037ZM254.888 123.044H239.732V125.044H254.888V123.044ZM240.732 124.044V120.12H238.732V124.044H240.732ZM239.732 121.12H250.568V119.12H239.732V121.12ZM250.245 119.174L247.185 120.218L247.831 122.11L250.891 121.066L250.245 119.174ZM248.508 121.164C248.508 120.274 248.341 119.451 247.954 118.741L246.198 119.699C246.387 120.045 246.508 120.518 246.508 121.164H248.508ZM247.978 118.789C247.638 118.077 247.138 117.501 246.475 117.103L245.446 118.817C245.742 118.995 245.986 119.259 246.174 119.651L247.978 118.789ZM246.505 117.122C245.836 116.687 245.063 116.492 244.232 116.492V118.492C244.745 118.492 245.124 118.609 245.415 118.798L246.505 117.122ZM244.232 116.492C243.4 116.492 242.624 116.687 241.942 117.11L242.994 118.81C243.32 118.609 243.721 118.492 244.232 118.492V116.492ZM241.954 117.103C241.29 117.501 240.79 118.077 240.45 118.789L242.254 119.651C242.442 119.259 242.686 118.995 242.983 118.817L241.954 117.103ZM240.458 118.773C240.107 119.475 239.956 120.286 239.956 121.164H241.956C241.956 120.506 242.07 120.021 242.247 119.667L240.458 118.773ZM239.956 121.164V122.388H241.956V121.164H239.956ZM239.956 122.388C239.956 123.361 240.151 124.258 240.588 125.037L242.333 124.059C242.097 123.638 241.956 123.095 241.956 122.388H239.956ZM240.588 125.037C241.023 125.814 241.652 126.41 242.453 126.81L243.347 125.022C242.9 124.798 242.569 124.482 242.333 124.059L240.588 125.037ZM242.481 126.824C243.269 127.188 244.176 127.348 245.168 127.348V125.348C244.384 125.348 243.779 125.22 243.319 125.008L242.481 126.824ZM245.168 127.348C246.156 127.348 247.044 127.22 247.785 126.911L247.016 125.065C246.604 125.236 246.004 125.348 245.168 125.348V127.348ZM247.772 126.916C248.468 126.638 249.167 126.231 249.867 125.712L248.677 124.104C248.082 124.545 247.532 124.858 247.029 125.06L247.772 126.916ZM248.562 125.612L252.81 129.896L254.23 128.488L249.982 124.204L248.562 125.612ZM252.788 128.511C251.938 129.424 250.88 130.135 249.593 130.636L250.319 132.5C251.864 131.897 253.182 131.024 254.252 129.873L252.788 128.511ZM249.601 130.633C248.353 131.107 246.8 131.36 244.916 131.36V133.36C246.969 133.36 248.776 133.085 250.311 132.503L249.601 130.633Z" fill="black" mask="url(#path-3-outside-2_16_47)"/>
</g>
<g filter="url(#filter2_d_16_47)">
<mask id="path-5-outside-3_16_47" maskUnits="userSpaceOnUse" x="4" y="104.8" width="150" height="28" fill="black">
<rect fill="white" x="4" y="104.8" width="150" height="28"/>
<path fill-rule="evenodd" clip-rule="evenodd" d="M5.00002 125.78V131H28.148V124.412H16.0679L27.572 111.02V105.8H5.36002V112.388H16.5042L5.00002 125.78ZM34.9349 130.028C36.7349 130.916 38.8349 131.36 41.2349 131.36C43.2029 131.36 44.8829 131.096 46.2749 130.568C47.6909 130.016 48.8789 129.224 49.8389 128.192L45.5909 123.908C44.9429 124.388 44.3189 124.748 43.7189 124.988C43.1429 125.228 42.3989 125.348 41.4869 125.348C40.5989 125.348 39.8429 125.204 39.2189 124.916C38.5949 124.604 38.1149 124.148 37.7789 123.548C37.6895 123.388 37.6121 123.22 37.5465 123.044H51.2069C51.2309 122.756 51.2549 122.444 51.2789 122.108C51.3029 121.748 51.3149 121.424 51.3149 121.136C51.3149 118.904 50.8109 117.032 49.8029 115.52C48.8189 114.008 47.4989 112.868 45.8429 112.1C44.2109 111.332 42.4229 110.948 40.4789 110.948C38.3669 110.948 36.4589 111.38 34.7549 112.244C33.0749 113.108 31.7429 114.308 30.7589 115.844C29.7989 117.38 29.3189 119.144 29.3189 121.136C29.3189 123.08 29.8109 124.832 30.7949 126.392C31.7789 127.928 33.1589 129.14 34.9349 130.028ZM37.3702 119.12C37.4362 118.789 37.5364 118.489 37.6709 118.22C37.9349 117.668 38.3069 117.248 38.7869 116.96C39.2909 116.648 39.8789 116.492 40.5509 116.492C41.2229 116.492 41.7989 116.648 42.2789 116.96C42.7589 117.248 43.1309 117.668 43.3949 118.22C43.5415 118.489 43.6508 118.789 43.7228 119.12H37.3702ZM53.8824 111.308V131H62.0184V111.308H53.8824ZM68.7926 129.416C70.3046 130.712 72.4166 131.36 75.1286 131.36C76.0886 131.36 77.0006 131.276 77.8646 131.108C78.7526 130.94 79.5086 130.676 80.1326 130.316L78.1886 124.664C77.6606 125.024 77.0486 125.204 76.3526 125.204C75.8726 125.204 75.4646 125.036 75.1286 124.7C74.8166 124.364 74.6606 123.896 74.6606 123.296V118.328H78.6926V112.388H74.6606V106.88H66.5246V112.388H63.8246V118.328H66.5246V123.368C66.5246 126.08 67.2806 128.096 68.7926 129.416ZM86.1198 130.064C87.8478 130.928 89.8278 131.36 92.0598 131.36C94.2918 131.36 96.2718 130.928 97.9998 130.064C99.7278 129.176 101.072 127.964 102.032 126.428C103.016 124.892 103.508 123.128 103.508 121.136C103.508 119.144 103.016 117.38 102.032 115.844C101.072 114.308 99.7278 113.108 97.9998 112.244C96.2718 111.38 94.2918 110.948 92.0598 110.948C89.8278 110.948 87.8478 111.38 86.1198 112.244C84.4158 113.108 83.0718 114.308 82.0878 115.844C81.1038 117.38 80.6118 119.144 80.6118 121.136C80.6118 123.128 81.1038 124.892 82.0878 126.428C83.0718 127.964 84.4158 129.176 86.1198 130.064ZM93.6798 124.592C93.1998 124.88 92.6598 125.024 92.0598 125.024C91.4598 125.024 90.9198 124.88 90.4398 124.592C89.9598 124.304 89.5758 123.872 89.2878 123.296C88.9998 122.696 88.8558 121.976 88.8558 121.136C88.8558 120.272 88.9998 119.564 89.2878 119.012C89.5758 118.436 89.9598 118.004 90.4398 117.716C90.9198 117.428 91.4598 117.284 92.0598 117.284C92.6598 117.284 93.1998 117.428 93.6798 117.716C94.1598 118.004 94.5438 118.436 94.8318 119.012C95.1198 119.564 95.2638 120.272 95.2638 121.136C95.2638 121.976 95.1198 122.696 94.8318 123.296C94.5438 123.872 94.1598 124.304 93.6798 124.592ZM110.014 130.424C111.286 131.048 112.702 131.36 114.262 131.36C115.75 131.36 117.13 131 118.402 130.28C118.932 129.976 119.412 129.605 119.842 129.168V131H127.582V111.308H119.446V120.56C119.446 121.52 119.314 122.3 119.05 122.9C118.786 123.476 118.438 123.896 118.006 124.16C117.598 124.4 117.154 124.52 116.674 124.52C115.882 124.52 115.258 124.244 114.802 123.692C114.346 123.14 114.118 122.168 114.118 120.776V111.308H105.982V122.18C105.982 124.316 106.342 126.068 107.062 127.436C107.782 128.78 108.766 129.776 110.014 130.424ZM148.975 111.884C147.751 111.26 146.383 110.948 144.871 110.948C143.263 110.948 141.799 111.32 140.479 112.064C139.913 112.389 139.397 112.785 138.931 113.253V111.308H131.191V131H139.327V121.748C139.327 120.764 139.459 119.984 139.723 119.408C140.011 118.832 140.383 118.424 140.839 118.184C141.319 117.92 141.835 117.788 142.387 117.788C143.131 117.788 143.719 118.052 144.151 118.58C144.583 119.084 144.799 119.948 144.799 121.172V131H152.935V119.768C152.935 117.704 152.575 116.024 151.855 114.728C151.159 113.432 150.199 112.484 148.975 111.884Z"/>
</mask>
<path fill-rule="evenodd" clip-rule="evenodd" d="M5.00002 125.78V131H28.148V124.412H16.0679L27.572 111.02V105.8H5.36002V112.388H16.5042L5.00002 125.78ZM34.9349 130.028C36.7349 130.916 38.8349 131.36 41.2349 131.36C43.2029 131.36 44.8829 131.096 46.2749 130.568C47.6909 130.016 48.8789 129.224 49.8389 128.192L45.5909 123.908C44.9429 124.388 44.3189 124.748 43.7189 124.988C43.1429 125.228 42.3989 125.348 41.4869 125.348C40.5989 125.348 39.8429 125.204 39.2189 124.916C38.5949 124.604 38.1149 124.148 37.7789 123.548C37.6895 123.388 37.6121 123.22 37.5465 123.044H51.2069C51.2309 122.756 51.2549 122.444 51.2789 122.108C51.3029 121.748 51.3149 121.424 51.3149 121.136C51.3149 118.904 50.8109 117.032 49.8029 115.52C48.8189 114.008 47.4989 112.868 45.8429 112.1C44.2109 111.332 42.4229 110.948 40.4789 110.948C38.3669 110.948 36.4589 111.38 34.7549 112.244C33.0749 113.108 31.7429 114.308 30.7589 115.844C29.7989 117.38 29.3189 119.144 29.3189 121.136C29.3189 123.08 29.8109 124.832 30.7949 126.392C31.7789 127.928 33.1589 129.14 34.9349 130.028ZM37.3702 119.12C37.4362 118.789 37.5364 118.489 37.6709 118.22C37.9349 117.668 38.3069 117.248 38.7869 116.96C39.2909 116.648 39.8789 116.492 40.5509 116.492C41.2229 116.492 41.7989 116.648 42.2789 116.96C42.7589 117.248 43.1309 117.668 43.3949 118.22C43.5415 118.489 43.6508 118.789 43.7228 119.12H37.3702ZM53.8824 111.308V131H62.0184V111.308H53.8824ZM68.7926 129.416C70.3046 130.712 72.4166 131.36 75.1286 131.36C76.0886 131.36 77.0006 131.276 77.8646 131.108C78.7526 130.94 79.5086 130.676 80.1326 130.316L78.1886 124.664C77.6606 125.024 77.0486 125.204 76.3526 125.204C75.8726 125.204 75.4646 125.036 75.1286 124.7C74.8166 124.364 74.6606 123.896 74.6606 123.296V118.328H78.6926V112.388H74.6606V106.88H66.5246V112.388H63.8246V118.328H66.5246V123.368C66.5246 126.08 67.2806 128.096 68.7926 129.416ZM86.1198 130.064C87.8478 130.928 89.8278 131.36 92.0598 131.36C94.2918 131.36 96.2718 130.928 97.9998 130.064C99.7278 129.176 101.072 127.964 102.032 126.428C103.016 124.892 103.508 123.128 103.508 121.136C103.508 119.144 103.016 117.38 102.032 115.844C101.072 114.308 99.7278 113.108 97.9998 112.244C96.2718 111.38 94.2918 110.948 92.0598 110.948C89.8278 110.948 87.8478 111.38 86.1198 112.244C84.4158 113.108 83.0718 114.308 82.0878 115.844C81.1038 117.38 80.6118 119.144 80.6118 121.136C80.6118 123.128 81.1038 124.892 82.0878 126.428C83.0718 127.964 84.4158 129.176 86.1198 130.064ZM93.6798 124.592C93.1998 124.88 92.6598 125.024 92.0598 125.024C91.4598 125.024 90.9198 124.88 90.4398 124.592C89.9598 124.304 89.5758 123.872 89.2878 123.296C88.9998 122.696 88.8558 121.976 88.8558 121.136C88.8558 120.272 88.9998 119.564 89.2878 119.012C89.5758 118.436 89.9598 118.004 90.4398 117.716C90.9198 117.428 91.4598 117.284 92.0598 117.284C92.6598 117.284 93.1998 117.428 93.6798 117.716C94.1598 118.004 94.5438 118.436 94.8318 119.012C95.1198 119.564 95.2638 120.272 95.2638 121.136C95.2638 121.976 95.1198 122.696 94.8318 123.296C94.5438 123.872 94.1598 124.304 93.6798 124.592ZM110.014 130.424C111.286 131.048 112.702 131.36 114.262 131.36C115.75 131.36 117.13 131 118.402 130.28C118.932 129.976 119.412 129.605 119.842 129.168V131H127.582V111.308H119.446V120.56C119.446 121.52 119.314 122.3 119.05 122.9C118.786 123.476 118.438 123.896 118.006 124.16C117.598 124.4 117.154 124.52 116.674 124.52C115.882 124.52 115.258 124.244 114.802 123.692C114.346 123.14 114.118 122.168 114.118 120.776V111.308H105.982V122.18C105.982 124.316 106.342 126.068 107.062 127.436C107.782 128.78 108.766 129.776 110.014 130.424ZM148.975 111.884C147.751 111.26 146.383 110.948 144.871 110.948C143.263 110.948 141.799 111.32 140.479 112.064C139.913 112.389 139.397 112.785 138.931 113.253V111.308H131.191V131H139.327V121.748C139.327 120.764 139.459 119.984 139.723 119.408C140.011 118.832 140.383 118.424 140.839 118.184C141.319 117.92 141.835 117.788 142.387 117.788C143.131 117.788 143.719 118.052 144.151 118.58C144.583 119.084 144.799 119.948 144.799 121.172V131H152.935V119.768C152.935 117.704 152.575 116.024 151.855 114.728C151.159 113.432 150.199 112.484 148.975 111.884Z" fill="white"/>
<path d="M5.00002 131H4.00002V132H5.00002V131ZM5.00002 125.78L4.24147 125.128L4.00002 125.409V125.78H5.00002ZM28.148 131V132H29.148V131H28.148ZM28.148 124.412H29.148V123.412H28.148V124.412ZM16.0679 124.412L15.3093 123.76L13.8905 125.412H16.0679V124.412ZM27.572 111.02L28.3306 111.672L28.572 111.391V111.02H27.572ZM27.572 105.8H28.572V104.8H27.572V105.8ZM5.36002 105.8V104.8H4.36002V105.8H5.36002ZM5.36002 112.388H4.36002V113.388H5.36002V112.388ZM16.5042 112.388L17.2627 113.04L18.6815 111.388H16.5042V112.388ZM34.9349 130.028L34.4876 130.922L34.4924 130.925L34.9349 130.028ZM46.2749 130.568L46.6295 131.503L46.6381 131.5L46.2749 130.568ZM49.8389 128.192L50.5711 128.873L51.2252 128.17L50.549 127.488L49.8389 128.192ZM45.5909 123.908L46.3009 123.204L45.6913 122.589L44.9956 123.104L45.5909 123.908ZM43.7189 124.988L43.3475 124.06L43.3408 124.062L43.3343 124.065L43.7189 124.988ZM39.2189 124.916L38.7716 125.81L38.7856 125.817L38.7998 125.824L39.2189 124.916ZM37.7789 123.548L36.9064 124.037L36.9064 124.037L37.7789 123.548ZM37.5465 123.044V122.044H36.1081L36.6091 123.392L37.5465 123.044ZM51.2069 123.044V124.044H52.127L52.2034 123.127L51.2069 123.044ZM51.2789 122.108L52.2763 122.179L52.2767 122.174L51.2789 122.108ZM49.8029 115.52L48.9647 116.065L48.9708 116.075L49.8029 115.52ZM45.8429 112.1L45.4171 113.005L45.4221 113.007L45.8429 112.1ZM34.7549 112.244L34.3026 111.352L34.2975 111.355L34.7549 112.244ZM30.7589 115.844L29.9168 115.305L29.9109 115.314L30.7589 115.844ZM30.7949 126.392L29.949 126.926L29.9528 126.931L30.7949 126.392ZM37.6709 118.22L38.5653 118.667L38.5692 118.659L38.573 118.651L37.6709 118.22ZM37.3702 119.12L36.3895 118.925L36.1513 120.12H37.3702V119.12ZM38.7869 116.96L39.3014 117.818L39.3132 117.81L38.7869 116.96ZM42.2789 116.96L41.7339 117.798L41.749 117.808L41.7644 117.817L42.2789 116.96ZM43.3949 118.22L42.4927 118.651L42.5042 118.675L42.517 118.699L43.3949 118.22ZM43.7228 119.12V120.12H44.9635L44.7 118.908L43.7228 119.12ZM53.8824 131H52.8824V132H53.8824V131ZM53.8824 111.308V110.308H52.8824V111.308H53.8824ZM62.0184 131V132H63.0184V131H62.0184ZM62.0184 111.308H63.0184V110.308H62.0184V111.308ZM68.7926 129.416L68.1349 130.169L68.1418 130.175L68.7926 129.416ZM77.8646 131.108L77.6787 130.125L77.6737 130.126L77.8646 131.108ZM80.1326 130.316L80.6323 131.182L81.3463 130.77L81.0782 129.991L80.1326 130.316ZM78.1886 124.664L79.1342 124.339L78.708 123.1L77.6252 123.838L78.1886 124.664ZM75.1286 124.7L74.3958 125.38L74.4084 125.394L74.4215 125.407L75.1286 124.7ZM74.6606 118.328V117.328H73.6606V118.328H74.6606ZM78.6926 118.328V119.328H79.6926V118.328H78.6926ZM78.6926 112.388H79.6926V111.388H78.6926V112.388ZM74.6606 112.388H73.6606V113.388H74.6606V112.388ZM74.6606 106.88H75.6606V105.88H74.6606V106.88ZM66.5246 106.88V105.88H65.5246V106.88H66.5246ZM66.5246 112.388V113.388H67.5246V112.388H66.5246ZM63.8246 112.388V111.388H62.8246V112.388H63.8246ZM63.8246 118.328H62.8246V119.328H63.8246V118.328ZM66.5246 118.328H67.5246V117.328H66.5246V118.328ZM86.1198 130.064L85.6577 130.951L85.6651 130.955L85.6726 130.958L86.1198 130.064ZM97.9998 130.064L98.4471 130.958L98.4569 130.953L97.9998 130.064ZM102.032 126.428L101.19 125.889L101.184 125.898L102.032 126.428ZM102.032 115.844L101.184 116.374L101.19 116.383L102.032 115.844ZM97.9998 112.244L97.5526 113.138V113.138L97.9998 112.244ZM86.1198 112.244L85.6726 111.35L85.6676 111.352L86.1198 112.244ZM82.0878 115.844L81.2458 115.305L82.0878 115.844ZM82.0878 126.428L82.9299 125.889L82.0878 126.428ZM93.6798 124.592L93.1653 123.734V123.734L93.6798 124.592ZM90.4398 124.592L89.9253 125.449V125.449L90.4398 124.592ZM89.2878 123.296L88.3863 123.729L88.3898 123.736L88.3934 123.743L89.2878 123.296ZM89.2878 119.012L90.1744 119.475L90.1784 119.467L90.1823 119.459L89.2878 119.012ZM90.4398 117.716L89.9253 116.858V116.858L90.4398 117.716ZM93.6798 117.716L93.1653 118.573V118.573L93.6798 117.716ZM94.8318 119.012L93.9374 119.459L93.9413 119.467L93.9453 119.475L94.8318 119.012ZM94.8318 123.296L95.7263 123.743L95.7299 123.736L95.7334 123.729L94.8318 123.296ZM110.014 130.424L109.553 131.311L109.564 131.317L109.574 131.322L110.014 130.424ZM118.402 130.28L118.895 131.15L118.9 131.147L118.402 130.28ZM119.842 129.168H120.842V126.725L119.129 128.467L119.842 129.168ZM119.842 131H118.842V132H119.842V131ZM127.582 131V132H128.582V131H127.582ZM127.582 111.308H128.582V110.308H127.582V111.308ZM119.446 111.308V110.308H118.446V111.308H119.446ZM119.05 122.9L119.959 123.317L119.963 123.31L119.966 123.303L119.05 122.9ZM118.006 124.16L118.513 125.022L118.521 125.018L118.528 125.013L118.006 124.16ZM114.802 123.692L115.573 123.055L115.573 123.055L114.802 123.692ZM114.118 111.308H115.118V110.308H114.118V111.308ZM105.982 111.308V110.308H104.982V111.308H105.982ZM107.062 127.436L106.177 127.902L106.181 127.908L107.062 127.436ZM148.975 111.884L148.521 112.775L148.528 112.778L148.535 112.782L148.975 111.884ZM140.479 112.064L139.988 111.193L139.981 111.197L140.479 112.064ZM138.931 113.253H137.931V115.673L139.639 113.958L138.931 113.253ZM138.931 111.308H139.931V110.308H138.931V111.308ZM131.191 111.308V110.308H130.191V111.308H131.191ZM131.191 131H130.191V132H131.191V131ZM139.327 131V132H140.327V131H139.327ZM139.723 119.408L138.829 118.961L138.821 118.976L138.814 118.991L139.723 119.408ZM140.839 118.184L141.305 119.069L141.313 119.065L141.321 119.06L140.839 118.184ZM144.151 118.58L143.377 119.213L143.384 119.222L143.392 119.231L144.151 118.58ZM144.799 131H143.799V132H144.799V131ZM152.935 131V132H153.935V131H152.935ZM151.855 114.728L150.974 115.201L150.977 115.207L150.981 115.214L151.855 114.728ZM6.00002 131V125.78H4.00002V131H6.00002ZM28.148 130H5.00002V132H28.148V130ZM27.148 124.412V131H29.148V124.412H27.148ZM16.0679 125.412H28.148V123.412H16.0679V125.412ZM26.8135 110.368L15.3093 123.76L16.8264 125.064L28.3306 111.672L26.8135 110.368ZM26.572 105.8V111.02H28.572V105.8H26.572ZM5.36002 106.8H27.572V104.8H5.36002V106.8ZM6.36002 112.388V105.8H4.36002V112.388H6.36002ZM16.5042 111.388H5.36002V113.388H16.5042V111.388ZM5.75857 126.432L17.2627 113.04L15.7456 111.736L4.24147 125.128L5.75857 126.432ZM41.2349 130.36C38.9586 130.36 37.0153 129.939 35.3773 129.131L34.4924 130.925C36.4544 131.893 38.7112 132.36 41.2349 132.36V130.36ZM45.9202 129.633C44.6715 130.107 43.1185 130.36 41.2349 130.36V132.36C43.2872 132.36 45.0943 132.085 46.6295 131.503L45.9202 129.633ZM49.1067 127.511C48.2571 128.424 47.1986 129.135 45.9117 129.636L46.6381 131.5C48.1832 130.897 49.5006 130.024 50.5711 128.873L49.1067 127.511ZM44.8808 124.612L49.1288 128.896L50.549 127.488L46.3009 123.204L44.8808 124.612ZM44.0903 125.916C44.7867 125.638 45.4854 125.231 46.1861 124.712L44.9956 123.104C44.4003 123.545 43.851 123.858 43.3475 124.06L44.0903 125.916ZM41.4869 126.348C42.4752 126.348 43.363 126.22 44.1035 125.911L43.3343 124.065C42.9227 124.236 42.3226 124.348 41.4869 124.348V126.348ZM38.7998 125.824C39.5877 126.188 40.4948 126.348 41.4869 126.348V124.348C40.7029 124.348 40.0981 124.22 39.6379 124.008L38.7998 125.824ZM36.9064 124.037C37.3418 124.814 37.9712 125.41 38.7716 125.81L39.6661 124.022C39.2185 123.798 38.888 123.482 38.6514 123.059L36.9064 124.037ZM36.6091 123.392C36.6921 123.616 36.7911 123.831 36.9064 124.037L38.6514 123.059C38.588 122.946 38.532 122.825 38.4839 122.696L36.6091 123.392ZM51.2069 122.044H37.5465V124.044H51.2069V122.044ZM50.2814 122.037C50.2576 122.369 50.2339 122.677 50.2103 122.961L52.2034 123.127C52.2278 122.835 52.2521 122.519 52.2763 122.179L50.2814 122.037ZM50.3149 121.136C50.3149 121.397 50.304 121.698 50.2811 122.041L52.2767 122.174C52.3018 121.798 52.3149 121.451 52.3149 121.136H50.3149ZM48.9708 116.075C49.8466 117.388 50.3149 119.056 50.3149 121.136H52.3149C52.3149 118.752 51.7752 116.676 50.6349 114.965L48.9708 116.075ZM45.4221 113.007C46.9099 113.697 48.0844 114.713 48.9647 116.065L50.641 114.975C49.5533 113.303 48.0878 112.039 46.2636 111.193L45.4221 113.007ZM40.4789 111.948C42.2873 111.948 43.9284 112.304 45.4171 113.005L46.2687 111.195C44.4933 110.36 42.5584 109.948 40.4789 109.948V111.948ZM35.2071 113.136C36.7567 112.35 38.5072 111.948 40.4789 111.948V109.948C38.2265 109.948 36.1611 110.41 34.3026 111.352L35.2071 113.136ZM31.6009 116.383C32.4863 115.001 33.6832 113.92 35.2122 113.133L34.2975 111.355C32.4665 112.296 30.9994 113.615 29.9168 115.305L31.6009 116.383ZM30.3189 121.136C30.3189 119.312 30.756 117.735 31.6069 116.374L29.9109 115.314C28.8418 117.025 28.3189 118.976 28.3189 121.136H30.3189ZM31.6407 125.858C30.763 124.467 30.3189 122.902 30.3189 121.136H28.3189C28.3189 123.258 28.8588 125.197 29.9491 126.925L31.6407 125.858ZM35.3821 129.134C33.7525 128.319 32.5152 127.224 31.6369 125.853L29.9528 126.931C31.0426 128.632 32.5652 129.961 34.4877 130.922L35.3821 129.134ZM36.7764 117.773C36.5976 118.13 36.4708 118.517 36.3895 118.925L38.351 119.315C38.4016 119.061 38.4753 118.847 38.5653 118.667L36.7764 117.773ZM38.2724 116.102C37.6086 116.501 37.1091 117.077 36.7687 117.789L38.573 118.651C38.7606 118.259 39.0052 117.995 39.3014 117.817L38.2724 116.102ZM40.5509 115.492C39.7184 115.492 38.943 115.687 38.2605 116.11L39.3132 117.81C39.6388 117.609 40.0394 117.492 40.5509 117.492V115.492ZM42.8239 116.122C42.1551 115.687 41.3821 115.492 40.5509 115.492V117.492C41.0637 117.492 41.4426 117.609 41.7339 117.798L42.8239 116.122ZM44.297 117.789C43.9566 117.077 43.4572 116.501 42.7934 116.102L41.7644 117.817C42.0606 117.995 42.3052 118.259 42.4927 118.651L44.297 117.789ZM44.7 118.908C44.6099 118.493 44.4696 118.102 44.2728 117.741L42.517 118.699C42.6135 118.876 42.6918 119.085 42.7456 119.332L44.7 118.908ZM37.3702 120.12H43.7228V118.12H37.3702V120.12ZM54.8824 131V111.308H52.8824V131H54.8824ZM62.0184 130H53.8824V132H62.0184V130ZM61.0184 111.308V131H63.0184V111.308H61.0184ZM53.8824 112.308H62.0184V110.308H53.8824V112.308ZM75.1286 130.36C72.5687 130.36 70.7177 129.749 69.4434 128.657L68.1418 130.175C69.8914 131.675 72.2645 132.36 75.1286 132.36V130.36ZM77.6737 130.126C76.878 130.281 76.0302 130.36 75.1286 130.36V132.36C76.1469 132.36 77.1232 132.271 78.0555 132.09L77.6737 130.126ZM79.6329 129.45C79.1274 129.741 78.4832 129.973 77.6787 130.125L78.0505 132.091C79.022 131.907 79.8898 131.611 80.6323 131.182L79.6329 129.45ZM77.243 124.989L79.187 130.641L81.0782 129.991L79.1342 124.339L77.243 124.989ZM76.3526 126.204C77.2308 126.204 78.043 125.974 78.7519 125.49L77.6252 123.838C77.2781 124.074 76.8664 124.204 76.3526 124.204V126.204ZM74.4215 125.407C74.9471 125.933 75.6104 126.204 76.3526 126.204V124.204C76.1348 124.204 75.982 124.139 75.8357 123.993L74.4215 125.407ZM73.6606 123.296C73.6606 124.068 73.8644 124.808 74.3958 125.38L75.8614 124.02C75.7688 123.92 75.6606 123.724 75.6606 123.296H73.6606ZM73.6606 118.328V123.296H75.6606V118.328H73.6606ZM78.6926 117.328H74.6606V119.328H78.6926V117.328ZM77.6926 112.388V118.328H79.6926V112.388H77.6926ZM74.6606 113.388H78.6926V111.388H74.6606V113.388ZM73.6606 106.88V112.388H75.6606V106.88H73.6606ZM66.5246 107.88H74.6606V105.88H66.5246V107.88ZM67.5246 112.388V106.88H65.5246V112.388H67.5246ZM63.8246 113.388H66.5246V111.388H63.8246V113.388ZM64.8246 118.328V112.388H62.8246V118.328H64.8246ZM66.5246 117.328H63.8246V119.328H66.5246V117.328ZM67.5246 123.368V118.328H65.5246V123.368H67.5246ZM69.4502 128.663C68.2249 127.593 67.5246 125.898 67.5246 123.368H65.5246C65.5246 126.262 66.3363 128.599 68.1349 130.169L69.4502 128.663ZM92.0598 130.36C89.9589 130.36 88.1361 129.954 86.567 129.17L85.6726 130.958C87.5596 131.902 89.6967 132.36 92.0598 132.36V130.36ZM97.5526 129.17C95.9836 129.954 94.1607 130.36 92.0598 130.36V132.36C94.4229 132.36 96.5601 131.902 98.447 130.958L97.5526 129.17ZM101.184 125.898C100.326 127.27 99.1225 128.363 97.5428 129.175L98.4569 130.953C100.333 129.989 101.817 128.658 102.88 126.958L101.184 125.898ZM102.508 121.136C102.508 122.955 102.061 124.528 101.19 125.889L102.874 126.967C103.97 125.256 104.508 123.301 104.508 121.136H102.508ZM101.19 116.383C102.061 117.744 102.508 119.317 102.508 121.136H104.508C104.508 118.971 103.97 117.016 102.874 115.305L101.19 116.383ZM97.5526 113.138C99.1275 113.926 100.328 115.004 101.184 116.374L102.88 115.314C101.816 113.611 100.328 112.29 98.447 111.35L97.5526 113.138ZM92.0598 111.948C94.1607 111.948 95.9836 112.354 97.5526 113.138L98.447 111.35C96.5601 110.406 94.4229 109.948 92.0598 109.948V111.948ZM86.567 113.138C88.1361 112.354 89.9589 111.948 92.0598 111.948V109.948C89.6967 109.948 87.5596 110.406 85.6726 111.35L86.567 113.138ZM82.9299 116.383C83.813 115.005 85.0192 113.923 86.5721 113.136L85.6676 111.352C83.8124 112.293 82.3306 113.611 81.2458 115.305L82.9299 116.383ZM81.6118 121.136C81.6118 119.317 82.0585 117.744 82.9299 116.383L81.2458 115.305C80.1492 117.016 79.6118 118.971 79.6118 121.136H81.6118ZM82.9299 125.889C82.0585 124.528 81.6118 122.955 81.6118 121.136H79.6118C79.6118 123.301 80.1492 125.256 81.2458 126.967L82.9299 125.889ZM86.582 129.177C85.0242 128.365 83.8146 127.27 82.9299 125.889L81.2458 126.967C82.329 128.658 83.8075 129.987 85.6577 130.951L86.582 129.177ZM92.0598 126.024C92.8276 126.024 93.5477 125.837 94.1943 125.449L93.1653 123.734C92.852 123.923 92.4921 124.024 92.0598 124.024V126.024ZM89.9253 125.449C90.572 125.837 91.2921 126.024 92.0598 126.024V124.024C91.6276 124.024 91.2677 123.923 90.9543 123.734L89.9253 125.449ZM88.3934 123.743C88.7534 124.463 89.2589 125.05 89.9253 125.449L90.9543 123.734C90.6608 123.558 90.3983 123.281 90.1823 122.849L88.3934 123.743ZM87.8558 121.136C87.8558 122.088 88.0188 122.963 88.3863 123.729L90.1894 122.863C89.9809 122.429 89.8558 121.864 89.8558 121.136H87.8558ZM88.4013 118.549C88.0155 119.289 87.8558 120.17 87.8558 121.136H89.8558C89.8558 120.374 89.9841 119.839 90.1744 119.475L88.4013 118.549ZM89.9253 116.858C89.2589 117.258 88.7534 117.845 88.3934 118.565L90.1823 119.459C90.3983 119.027 90.6608 118.75 90.9543 118.573L89.9253 116.858ZM92.0598 116.284C91.2921 116.284 90.572 116.471 89.9253 116.858L90.9543 118.573C91.2677 118.385 91.6276 118.284 92.0598 118.284V116.284ZM94.1943 116.858C93.5477 116.471 92.8276 116.284 92.0598 116.284V118.284C92.4921 118.284 92.852 118.385 93.1653 118.573L94.1943 116.858ZM95.7263 118.565C95.3663 117.845 94.8608 117.258 94.1943 116.858L93.1653 118.573C93.4589 118.75 93.7214 119.027 93.9374 119.459L95.7263 118.565ZM96.2638 121.136C96.2638 120.17 96.1041 119.289 95.7184 118.549L93.9453 119.475C94.1355 119.839 94.2638 120.374 94.2638 121.136H96.2638ZM95.7334 123.729C96.1009 122.963 96.2638 122.088 96.2638 121.136H94.2638C94.2638 121.864 94.1388 122.429 93.9303 122.863L95.7334 123.729ZM94.1943 125.449C94.8608 125.05 95.3663 124.463 95.7263 123.743L93.9374 122.849C93.7214 123.281 93.4589 123.558 93.1653 123.734L94.1943 125.449ZM114.262 130.36C112.839 130.36 111.576 130.076 110.455 129.526L109.574 131.322C110.996 132.02 112.565 132.36 114.262 132.36V130.36ZM117.91 129.41C116.791 130.043 115.581 130.36 114.262 130.36V132.36C115.92 132.36 117.47 131.957 118.895 131.15L117.91 129.41ZM119.129 128.467C118.763 128.839 118.356 129.154 117.904 129.413L118.9 131.147C119.509 130.797 120.062 130.371 120.555 129.869L119.129 128.467ZM120.842 131V129.168H118.842V131H120.842ZM127.582 130H119.842V132H127.582V130ZM126.582 111.308V131H128.582V111.308H126.582ZM119.446 112.308H127.582V110.308H119.446V112.308ZM120.446 120.56V111.308H118.446V120.56H120.446ZM119.966 123.303C120.305 122.531 120.446 121.6 120.446 120.56H118.446C118.446 121.44 118.323 122.069 118.135 122.497L119.966 123.303ZM118.528 125.013C119.168 124.622 119.633 124.028 119.959 123.317L118.141 122.483C117.939 122.924 117.709 123.17 117.485 123.307L118.528 125.013ZM116.674 125.52C117.33 125.52 117.949 125.354 118.513 125.022L117.499 123.298C117.247 123.446 116.979 123.52 116.674 123.52V125.52ZM114.031 124.329C114.699 125.137 115.62 125.52 116.674 125.52V123.52C116.145 123.52 115.818 123.351 115.573 123.055L114.031 124.329ZM113.118 120.776C113.118 122.212 113.34 123.492 114.031 124.329L115.573 123.055C115.352 122.787 115.118 122.124 115.118 120.776H113.118ZM113.118 111.308V120.776H115.118V111.308H113.118ZM105.982 112.308H114.118V110.308H105.982V112.308ZM106.982 122.18V111.308H104.982V122.18H106.982ZM107.947 126.97C107.326 125.79 106.982 124.212 106.982 122.18H104.982C104.982 124.42 105.358 126.346 106.177 127.902L107.947 126.97ZM110.475 129.536C109.421 128.989 108.577 128.146 107.944 126.964L106.181 127.908C106.988 129.414 108.111 130.563 109.553 131.311L110.475 129.536ZM144.871 111.948C146.241 111.948 147.451 112.23 148.521 112.775L149.429 110.993C148.051 110.29 146.525 109.948 144.871 109.948V111.948ZM140.97 112.935C142.131 112.281 143.424 111.948 144.871 111.948V109.948C143.102 109.948 141.467 110.359 139.988 111.193L140.97 112.935ZM139.639 113.958C140.043 113.553 140.488 113.212 140.977 112.931L139.981 111.197C139.337 111.567 138.75 112.017 138.223 112.547L139.639 113.958ZM137.931 111.308V113.253H139.931V111.308H137.931ZM131.191 112.308H138.931V110.308H131.191V112.308ZM132.191 131V111.308H130.191V131H132.191ZM139.327 130H131.191V132H139.327V130ZM138.327 121.748V131H140.327V121.748H138.327ZM138.814 118.991C138.466 119.75 138.327 120.692 138.327 121.748H140.327C140.327 120.836 140.452 120.218 140.632 119.825L138.814 118.991ZM140.373 117.299C139.69 117.659 139.187 118.245 138.829 118.961L140.617 119.855C140.835 119.419 141.076 119.189 141.305 119.069L140.373 117.299ZM142.387 116.788C141.668 116.788 140.986 116.962 140.357 117.308L141.321 119.06C141.652 118.878 142.002 118.788 142.387 118.788V116.788ZM144.925 117.947C144.284 117.164 143.4 116.788 142.387 116.788V118.788C142.862 118.788 143.154 118.94 143.377 119.213L144.925 117.947ZM145.799 121.172C145.799 119.887 145.584 118.715 144.91 117.929L143.392 119.231C143.582 119.453 143.799 120.009 143.799 121.172H145.799ZM145.799 131V121.172H143.799V131H145.799ZM152.935 130H144.799V132H152.935V130ZM151.935 119.768V131H153.935V119.768H151.935ZM150.981 115.214C151.592 116.314 151.935 117.811 151.935 119.768H153.935C153.935 117.597 153.558 115.734 152.729 114.242L150.981 115.214ZM148.535 112.782C149.556 113.282 150.369 114.074 150.974 115.201L152.736 114.255C151.949 112.79 150.842 111.685 149.415 110.986L148.535 112.782Z" fill="black" mask="url(#path-5-outside-3_16_47)"/>
</g>
<g filter="url(#filter3_i_16_47)">
<circle cx="6.5" cy="6.5" r="6.5" transform="matrix(-1 0 0 1 63.7582 96)" fill="#FF0000"/>
</g>
<mask id="path-8-outside-4_16_47" maskUnits="userSpaceOnUse" x="20" y="2" width="32" height="93" fill="black">
<rect fill="white" x="20" y="2" width="32" height="93"/>
<path d="M45.3224 93.624C39.9464 93.624 35.8824 92.28 33.1304 89.592C30.3784 86.904 29.0024 83.032 29.0024 77.976V58.2C29.0024 56.6 28.6184 55.448 27.8504 54.744C27.0824 53.976 26.0264 53.592 24.6824 53.592H21.5144V43.8H24.6824C26.0264 43.8 27.0824 43.416 27.8504 42.648C28.6184 41.88 29.0024 40.728 29.0024 39.192V19.416C29.0024 14.296 30.3784 10.424 33.1304 7.8C35.8824 5.112 39.9464 3.768 45.3224 3.768H50.1224V13.368H48.1064C45.7384 13.368 43.9464 14.008 42.7304 15.288C41.5784 16.568 41.0024 18.36 41.0024 20.664V38.904C41.0024 41.464 40.6824 43.448 40.0424 44.856C39.4024 46.264 38.3784 47.32 36.9704 48.024C35.6264 48.664 33.8664 49.144 31.6904 49.464V47.928C33.8664 48.184 35.6264 48.664 36.9704 49.368C38.3784 50.072 39.4024 51.128 40.0424 52.536C40.6824 53.944 41.0024 55.928 41.0024 58.488V76.728C41.0024 79.032 41.5784 80.824 42.7304 82.104C43.9464 83.384 45.7384 84.024 48.1064 84.024H50.1224V93.624H45.3224Z"/>
</mask>
<path d="M45.3224 93.624C39.9464 93.624 35.8824 92.28 33.1304 89.592C30.3784 86.904 29.0024 83.032 29.0024 77.976V58.2C29.0024 56.6 28.6184 55.448 27.8504 54.744C27.0824 53.976 26.0264 53.592 24.6824 53.592H21.5144V43.8H24.6824C26.0264 43.8 27.0824 43.416 27.8504 42.648C28.6184 41.88 29.0024 40.728 29.0024 39.192V19.416C29.0024 14.296 30.3784 10.424 33.1304 7.8C35.8824 5.112 39.9464 3.768 45.3224 3.768H50.1224V13.368H48.1064C45.7384 13.368 43.9464 14.008 42.7304 15.288C41.5784 16.568 41.0024 18.36 41.0024 20.664V38.904C41.0024 41.464 40.6824 43.448 40.0424 44.856C39.4024 46.264 38.3784 47.32 36.9704 48.024C35.6264 48.664 33.8664 49.144 31.6904 49.464V47.928C33.8664 48.184 35.6264 48.664 36.9704 49.368C38.3784 50.072 39.4024 51.128 40.0424 52.536C40.6824 53.944 41.0024 55.928 41.0024 58.488V76.728C41.0024 79.032 41.5784 80.824 42.7304 82.104C43.9464 83.384 45.7384 84.024 48.1064 84.024H50.1224V93.624H45.3224Z" fill="white"/>
<path d="M33.1304 89.592L33.8291 88.8766L33.1304 89.592ZM27.8504 54.744L27.1433 55.4511L27.1586 55.4665L27.1747 55.4812L27.8504 54.744ZM21.5144 53.592H20.5144V54.592H21.5144V53.592ZM21.5144 43.8V42.8H20.5144V43.8H21.5144ZM27.8504 42.648L28.5575 43.3551L28.5575 43.3551L27.8504 42.648ZM33.1304 7.8L33.8205 8.52378L33.8291 8.51537L33.1304 7.8ZM50.1224 3.768H51.1224V2.768H50.1224V3.768ZM50.1224 13.368V14.368H51.1224V13.368H50.1224ZM42.7304 15.288L42.0054 14.5992L41.9961 14.609L41.9871 14.619L42.7304 15.288ZM40.0424 44.856L40.9527 45.2698V45.2698L40.0424 44.856ZM36.9704 48.024L37.4003 48.9269L37.409 48.9227L37.4176 48.9184L36.9704 48.024ZM31.6904 49.464H30.6904V50.6218L31.8359 50.4534L31.6904 49.464ZM31.6904 47.928L31.8072 46.9348L30.6904 46.8035V47.928H31.6904ZM36.9704 49.368L36.5064 50.2538L36.5147 50.2582L36.5232 50.2624L36.9704 49.368ZM42.7304 82.104L41.9871 82.773L41.9961 82.783L42.0054 82.7927L42.7304 82.104ZM50.1224 84.024H51.1224V83.024H50.1224V84.024ZM50.1224 93.624V94.624H51.1224V93.624H50.1224ZM45.3224 92.624C40.1025 92.624 36.3307 91.32 33.8291 88.8766L32.4316 90.3074C35.4341 93.24 39.7903 94.624 45.3224 94.624V92.624ZM33.8291 88.8766C31.3248 86.4306 30.0024 82.8509 30.0024 77.976H28.0024C28.0024 83.2131 29.4319 87.3774 32.4316 90.3074L33.8291 88.8766ZM30.0024 77.976V58.2H28.0024V77.976H30.0024ZM30.0024 58.2C30.0024 56.4687 29.5896 54.9817 28.5261 54.0068L27.1747 55.4812C27.6471 55.9143 28.0024 56.7313 28.0024 58.2H30.0024ZM28.5575 54.0369C27.5595 53.0389 26.2249 52.592 24.6824 52.592V54.592C25.8279 54.592 26.6052 54.9131 27.1433 55.4511L28.5575 54.0369ZM24.6824 52.592H21.5144V54.592H24.6824V52.592ZM22.5144 53.592V43.8H20.5144V53.592H22.5144ZM21.5144 44.8H24.6824V42.8H21.5144V44.8ZM24.6824 44.8C26.2249 44.8 27.5595 44.3531 28.5575 43.3551L27.1433 41.9409C26.6052 42.4789 25.8279 42.8 24.6824 42.8V44.8ZM28.5575 43.3551C29.5792 42.3334 30.0024 40.8821 30.0024 39.192H28.0024C28.0024 40.5739 27.6576 41.4266 27.1433 41.9409L28.5575 43.3551ZM30.0024 39.192V19.416H28.0024V39.192H30.0024ZM30.0024 19.416C30.0024 14.4712 31.3277 10.9005 33.8205 8.52373L32.4403 7.07626C29.429 9.94748 28.0024 14.1208 28.0024 19.416H30.0024ZM33.8291 8.51537C36.3307 6.07201 40.1025 4.768 45.3224 4.768V2.768C39.7903 2.768 35.4341 4.15198 32.4316 7.08462L33.8291 8.51537ZM45.3224 4.768H50.1224V2.768H45.3224V4.768ZM49.1224 3.768V13.368H51.1224V3.768H49.1224ZM50.1224 12.368H48.1064V14.368H50.1224V12.368ZM48.1064 12.368C45.5615 12.368 43.468 13.0596 42.0054 14.5992L43.4554 15.9767C44.4247 14.9564 45.9153 14.368 48.1064 14.368V12.368ZM41.9871 14.619C40.6207 16.1372 40.0024 18.1978 40.0024 20.664H42.0024C42.0024 18.5222 42.536 16.9988 43.4737 15.957L41.9871 14.619ZM40.0024 20.664V38.904H42.0024V20.664H40.0024ZM40.0024 38.904C40.0024 41.403 39.6865 43.2223 39.132 44.4422L40.9527 45.2698C41.6782 43.6737 42.0024 41.525 42.0024 38.904H40.0024ZM39.132 44.4422C38.5886 45.6377 37.7303 46.526 36.5232 47.1296L37.4176 48.9184C39.0265 48.114 40.2161 46.8903 40.9527 45.2698L39.132 44.4422ZM36.5404 47.1211C35.3183 47.7031 33.6646 48.1629 31.5449 48.4746L31.8359 50.4534C34.0681 50.1251 35.9345 49.6249 37.4003 48.9269L36.5404 47.1211ZM32.6904 49.464V47.928H30.6904V49.464H32.6904ZM31.5735 48.9212C33.6775 49.1687 35.3072 49.6257 36.5064 50.2538L37.4344 48.4822C35.9455 47.7023 34.0552 47.1993 31.8072 46.9348L31.5735 48.9212ZM36.5232 50.2624C37.7303 50.866 38.5886 51.7543 39.132 52.9498L40.9527 52.1222C40.2161 50.5017 39.0265 49.278 37.4176 48.4736L36.5232 50.2624ZM39.132 52.9498C39.6865 54.1697 40.0024 55.989 40.0024 58.488H42.0024C42.0024 55.867 41.6782 53.7183 40.9527 52.1222L39.132 52.9498ZM40.0024 58.488V76.728H42.0024V58.488H40.0024ZM40.0024 76.728C40.0024 79.1942 40.6207 81.2548 41.9871 82.773L43.4737 81.435C42.536 80.3932 42.0024 78.8698 42.0024 76.728H40.0024ZM42.0054 82.7927C43.468 84.3324 45.5615 85.024 48.1064 85.024V83.024C45.9153 83.024 44.4247 82.4356 43.4554 81.4153L42.0054 82.7927ZM48.1064 85.024H50.1224V83.024H48.1064V85.024ZM49.1224 84.024V93.624H51.1224V84.024H49.1224ZM50.1224 92.624H45.3224V94.624H50.1224V92.624Z" fill="black" mask="url(#path-8-outside-4_16_47)"/>
<mask id="path-10-outside-5_16_47" maskUnits="userSpaceOnUse" x="227" y="2" width="32" height="93" fill="black">
<rect fill="white" x="227" y="2" width="32" height="93"/>
<path d="M233.432 93.624H228.632V84.024H230.648C233.08 84.024 234.872 83.384 236.024 82.104C237.24 80.824 237.848 79.032 237.848 76.728V58.488C237.848 55.928 238.168 53.944 238.808 52.536C239.512 51.128 240.536 50.072 241.88 49.368C243.224 48.664 244.952 48.184 247.064 47.928V49.464C244.952 49.144 243.224 48.664 241.88 48.024C240.536 47.32 239.512 46.264 238.808 44.856C238.168 43.448 237.848 41.464 237.848 38.904V20.664C237.848 18.36 237.24 16.568 236.024 15.288C234.872 14.008 233.08 13.368 230.648 13.368H228.632V3.768H233.432C238.872 3.768 242.968 5.112 245.72 7.8C248.472 10.424 249.848 14.296 249.848 19.416V39.192C249.848 40.728 250.232 41.88 251 42.648C251.768 43.416 252.792 43.8 254.072 43.8H257.336V53.592H254.072C252.792 53.592 251.768 53.976 251 54.744C250.232 55.448 249.848 56.6 249.848 58.2V77.976C249.848 83.032 248.472 86.904 245.72 89.592C242.968 92.28 238.872 93.624 233.432 93.624Z"/>
</mask>
<path d="M233.432 93.624H228.632V84.024H230.648C233.08 84.024 234.872 83.384 236.024 82.104C237.24 80.824 237.848 79.032 237.848 76.728V58.488C237.848 55.928 238.168 53.944 238.808 52.536C239.512 51.128 240.536 50.072 241.88 49.368C243.224 48.664 244.952 48.184 247.064 47.928V49.464C244.952 49.144 243.224 48.664 241.88 48.024C240.536 47.32 239.512 46.264 238.808 44.856C238.168 43.448 237.848 41.464 237.848 38.904V20.664C237.848 18.36 237.24 16.568 236.024 15.288C234.872 14.008 233.08 13.368 230.648 13.368H228.632V3.768H233.432C238.872 3.768 242.968 5.112 245.72 7.8C248.472 10.424 249.848 14.296 249.848 19.416V39.192C249.848 40.728 250.232 41.88 251 42.648C251.768 43.416 252.792 43.8 254.072 43.8H257.336V53.592H254.072C252.792 53.592 251.768 53.976 251 54.744C250.232 55.448 249.848 56.6 249.848 58.2V77.976C249.848 83.032 248.472 86.904 245.72 89.592C242.968 92.28 238.872 93.624 233.432 93.624Z" fill="white"/>
<path d="M228.632 93.624H227.632V94.624H228.632V93.624ZM228.632 84.024V83.024H227.632V84.024H228.632ZM236.024 82.104L235.299 81.4152L235.29 81.425L235.281 81.435L236.024 82.104ZM238.808 52.536L237.914 52.0888L237.905 52.1053L237.898 52.1222L238.808 52.536ZM241.88 49.368L241.416 48.4822L241.88 49.368ZM247.064 47.928H248.064V46.7995L246.944 46.9353L247.064 47.928ZM247.064 49.464L246.914 50.4527L248.064 50.6269V49.464H247.064ZM241.88 48.024L241.416 48.9098L241.433 48.9187L241.45 48.9269L241.88 48.024ZM238.808 44.856L237.898 45.2698L237.905 45.2867L237.914 45.3032L238.808 44.856ZM236.024 15.288L235.281 15.957L235.29 15.967L235.299 15.9767L236.024 15.288ZM228.632 13.368H227.632V14.368H228.632V13.368ZM228.632 3.768V2.768H227.632V3.768H228.632ZM245.72 7.8L245.021 8.51542L245.03 8.52373L245.72 7.8ZM251 42.648L250.293 43.3551V43.3551L251 42.648ZM257.336 43.8H258.336V42.8H257.336V43.8ZM257.336 53.592V54.592H258.336V53.592H257.336ZM251 54.744L251.676 55.4812L251.692 55.4665L251.707 55.4511L251 54.744ZM245.72 89.592L246.419 90.3074L245.72 89.592ZM233.432 92.624H228.632V94.624H233.432V92.624ZM229.632 93.624V84.024H227.632V93.624H229.632ZM228.632 85.024H230.648V83.024H228.632V85.024ZM230.648 85.024C233.243 85.024 235.358 84.339 236.767 82.773L235.281 81.435C234.386 82.429 232.917 83.024 230.648 83.024V85.024ZM236.749 82.7928C238.19 81.2756 238.848 79.2076 238.848 76.728H236.848C236.848 78.8564 236.29 80.3724 235.299 81.4152L236.749 82.7928ZM238.848 76.728V58.488H236.848V76.728H238.848ZM238.848 58.488C238.848 55.989 239.164 54.1697 239.718 52.9498L237.898 52.1222C237.172 53.7183 236.848 55.867 236.848 58.488H238.848ZM239.702 52.9832C240.316 51.7554 241.193 50.8566 242.344 50.2538L241.416 48.4822C239.879 49.2874 238.708 50.5006 237.914 52.0888L239.702 52.9832ZM242.344 50.2538C243.547 49.6236 245.148 49.1676 247.184 48.9207L246.944 46.9353C244.756 47.2004 242.901 47.7044 241.416 48.4822L242.344 50.2538ZM246.064 47.928V49.464H248.064V47.928H246.064ZM247.214 48.4753C245.161 48.1642 243.536 47.705 242.31 47.1211L241.45 48.9269C242.912 49.623 244.743 50.1238 246.914 50.4527L247.214 48.4753ZM242.344 47.1382C241.193 46.5354 240.316 45.6366 239.702 44.4088L237.914 45.3032C238.708 46.8914 239.879 48.1046 241.416 48.9098L242.344 47.1382ZM239.718 44.4422C239.164 43.2223 238.848 41.403 238.848 38.904H236.848C236.848 41.525 237.172 43.6737 237.898 45.2698L239.718 44.4422ZM238.848 38.904V20.664H236.848V38.904H238.848ZM238.848 20.664C238.848 18.1844 238.19 16.1164 236.749 14.5992L235.299 15.9767C236.29 17.0196 236.848 18.5356 236.848 20.664H238.848ZM236.767 14.619C235.358 13.053 233.243 12.368 230.648 12.368V14.368C232.917 14.368 234.386 14.963 235.281 15.957L236.767 14.619ZM230.648 12.368H228.632V14.368H230.648V12.368ZM229.632 13.368V3.768H227.632V13.368H229.632ZM228.632 4.768H233.432V2.768H228.632V4.768ZM233.432 4.768C238.72 4.768 242.522 6.07396 245.021 8.51537L246.419 7.08462C243.414 4.15004 239.024 2.768 233.432 2.768V4.768ZM245.03 8.52373C247.523 10.9005 248.848 14.4712 248.848 19.416H250.848C250.848 14.1208 249.421 9.94748 246.41 7.07626L245.03 8.52373ZM248.848 19.416V39.192H250.848V19.416H248.848ZM248.848 39.192C248.848 40.8821 249.271 42.3334 250.293 43.3551L251.707 41.9409C251.193 41.4266 250.848 40.5739 250.848 39.192H248.848ZM250.293 43.3551C251.282 44.3438 252.578 44.8 254.072 44.8V42.8C253.006 42.8 252.254 42.4882 251.707 41.9409L250.293 43.3551ZM254.072 44.8H257.336V42.8H254.072V44.8ZM256.336 43.8V53.592H258.336V43.8H256.336ZM257.336 52.592H254.072V54.592H257.336V52.592ZM254.072 52.592C252.578 52.592 251.282 53.0482 250.293 54.0369L251.707 55.4511C252.254 54.9038 253.006 54.592 254.072 54.592V52.592ZM250.324 54.0068C249.261 54.9817 248.848 56.4687 248.848 58.2H250.848C250.848 56.7313 251.203 55.9143 251.676 55.4812L250.324 54.0068ZM248.848 58.2V77.976H250.848V58.2H248.848ZM248.848 77.976C248.848 82.8509 247.526 86.4306 245.021 88.8766L246.419 90.3074C249.418 87.3774 250.848 83.2131 250.848 77.976H248.848ZM245.021 88.8766C242.522 91.318 238.72 92.624 233.432 92.624V94.624C239.024 94.624 243.414 93.242 246.419 90.3074L245.021 88.8766Z" fill="black" mask="url(#path-10-outside-5_16_47)"/>
<defs>
<filter id="filter0_d_16_47" x="59.768" y="0.512024" width="157.003" height="102.672" filterUnits="userSpaceOnUse" color-interpolation-filters="sRGB">
<feFlood flood-opacity="0" result="BackgroundImageFix"/>
<feColorMatrix in="SourceAlpha" type="matrix" values="0 0 0 0 0 0 0 0 0 0 0 0 0 0 0 0 0 0 127 0" result="hardAlpha"/>
<feOffset dy="4"/>
<feGaussianBlur stdDeviation="2"/>
<feComposite in2="hardAlpha" operator="out"/>
<feColorMatrix type="matrix" values="0 0 0 0 0 0 0 0 0 0 0 0 0 0 0 0 0 0 0.25 0"/>
<feBlend mode="normal" in2="BackgroundImageFix" result="effect1_dropShadow_16_47"/>
<feBlend mode="normal" in="SourceGraphic" in2="effect1_dropShadow_16_47" result="shape"/>
</filter>
<filter id="filter1_d_16_47" x="153.28" y="105.288" width="105.716" height="35.288" filterUnits="userSpaceOnUse" color-interpolation-filters="sRGB">
<feFlood flood-opacity="0" result="BackgroundImageFix"/>
<feColorMatrix in="SourceAlpha" type="matrix" values="0 0 0 0 0 0 0 0 0 0 0 0 0 0 0 0 0 0 127 0" result="hardAlpha"/>
<feOffset dy="4"/>
<feGaussianBlur stdDeviation="2"/>
<feComposite in2="hardAlpha" operator="out"/>
<feColorMatrix type="matrix" values="0 0 0 0 0 0 0 0 0 0 0 0 0 0 0 0 0 0 0.25 0"/>
<feBlend mode="normal" in2="BackgroundImageFix" result="effect1_dropShadow_16_47"/>
<feBlend mode="normal" in="SourceGraphic" in2="effect1_dropShadow_16_47" result="shape"/>
</filter>
<filter id="filter2_d_16_47" x="3.05176e-05" y="104.8" width="157.935" height="35.56" filterUnits="userSpaceOnUse" color-interpolation-filters="sRGB">
<feFlood flood-opacity="0" result="BackgroundImageFix"/>
<feColorMatrix in="SourceAlpha" type="matrix" values="0 0 0 0 0 0 0 0 0 0 0 0 0 0 0 0 0 0 127 0" result="hardAlpha"/>
<feOffset dy="4"/>
<feGaussianBlur stdDeviation="2"/>
<feComposite in2="hardAlpha" operator="out"/>
<feColorMatrix type="matrix" values="0 0 0 0 0 0 0 0 0 0 0 0 0 0 0 0 0 0 0.25 0"/>
<feBlend mode="normal" in2="BackgroundImageFix" result="effect1_dropShadow_16_47"/>
<feBlend mode="normal" in="SourceGraphic" in2="effect1_dropShadow_16_47" result="shape"/>
</filter>
<filter id="filter3_i_16_47" x="50.7582" y="96" width="13" height="17" filterUnits="userSpaceOnUse" color-interpolation-filters="sRGB">
<feFlood flood-opacity="0" result="BackgroundImageFix"/>
<feBlend mode="normal" in="SourceGraphic" in2="BackgroundImageFix" result="shape"/>
<feColorMatrix in="SourceAlpha" type="matrix" values="0 0 0 0 0 0 0 0 0 0 0 0 0 0 0 0 0 0 127 0" result="hardAlpha"/>
<feOffset dy="4"/>
<feGaussianBlur stdDeviation="2"/>
<feComposite in2="hardAlpha" operator="arithmetic" k2="-1" k3="1"/>
<feColorMatrix type="matrix" values="0 0 0 0 0 0 0 0 0 0 0 0 0 0 0 0 0 0 0.25 0"/>
<feBlend mode="normal" in2="shape" result="effect1_innerShadow_16_47"/>
</filter>
</defs>
</svg>
