<svg width="247" height="103" viewBox="0 0 247 103" fill="none" xmlns="http://www.w3.org/2000/svg">
<g filter="url(#filter0_d_25_12)">
<mask id="path-1-outside-1_25_12" maskUnits="userSpaceOnUse" x="47.768" y="0" width="150" height="95" fill="black">
<rect fill="white" x="47.768" width="150" height="95"/>
<path fill-rule="evenodd" clip-rule="evenodd" d="M139.08 90.344C145.053 92.5627 151.496 93.672 158.408 93.672C166.259 93.672 173.299 92.3067 179.528 89.576C185.843 86.8453 191.133 82.8773 195.4 77.672L182.088 65.384C179.016 68.968 175.603 71.656 171.848 73.448C168.093 75.1547 163.997 76.008 159.56 76.008C155.379 76.008 151.539 75.3253 148.04 73.96C144.541 72.5947 141.512 70.632 138.952 68.072C136.392 65.512 134.387 62.4827 132.936 58.984C131.571 55.4853 130.888 51.6027 130.888 47.336C130.888 43.0693 131.571 39.1867 132.936 35.688C134.387 32.1893 136.392 29.16 138.952 26.6C141.512 24.04 144.541 22.0773 148.04 20.712C151.539 19.3467 155.379 18.664 159.56 18.664C163.997 18.664 168.093 19.56 171.848 21.352C175.603 23.0587 179.016 25.6613 182.088 29.16L195.4 16.872C191.133 11.6667 185.843 7.74133 179.528 5.096C173.299 2.36533 166.301 1 158.536 1C151.539 1 145.096 2.152 139.208 4.45599C133.956 6.4349 129.282 9.19449 125.184 12.7348V2.536H49.792V19.432H97.9276L48.768 78.696V92.136H127.104V83.5572C130.662 86.3498 134.654 88.6121 139.08 90.344ZM118.94 75.24C116.783 72.3858 114.963 69.2712 113.48 65.896C111.091 60.264 109.896 54.0773 109.896 47.336C109.896 41.5872 110.765 36.2417 112.502 31.2997L76.1379 75.24H118.94Z"/>
</mask>
<path fill-rule="evenodd" clip-rule="evenodd" d="M139.08 90.344C145.053 92.5627 151.496 93.672 158.408 93.672C166.259 93.672 173.299 92.3067 179.528 89.576C185.843 86.8453 191.133 82.8773 195.4 77.672L182.088 65.384C179.016 68.968 175.603 71.656 171.848 73.448C168.093 75.1547 163.997 76.008 159.56 76.008C155.379 76.008 151.539 75.3253 148.04 73.96C144.541 72.5947 141.512 70.632 138.952 68.072C136.392 65.512 134.387 62.4827 132.936 58.984C131.571 55.4853 130.888 51.6027 130.888 47.336C130.888 43.0693 131.571 39.1867 132.936 35.688C134.387 32.1893 136.392 29.16 138.952 26.6C141.512 24.04 144.541 22.0773 148.04 20.712C151.539 19.3467 155.379 18.664 159.56 18.664C163.997 18.664 168.093 19.56 171.848 21.352C175.603 23.0587 179.016 25.6613 182.088 29.16L195.4 16.872C191.133 11.6667 185.843 7.74133 179.528 5.096C173.299 2.36533 166.301 1 158.536 1C151.539 1 145.096 2.152 139.208 4.45599C133.956 6.4349 129.282 9.19449 125.184 12.7348V2.536H49.792V19.432H97.9276L48.768 78.696V92.136H127.104V83.5572C130.662 86.3498 134.654 88.6121 139.08 90.344ZM118.94 75.24C116.783 72.3858 114.963 69.2712 113.48 65.896C111.091 60.264 109.896 54.0773 109.896 47.336C109.896 41.5872 110.765 36.2417 112.502 31.2997L76.1379 75.24H118.94Z" fill="white"/>
<path d="M139.08 90.344L138.716 91.2752L138.724 91.2784L138.732 91.2814L139.08 90.344ZM179.528 89.576L179.131 88.6581L179.127 88.6601L179.528 89.576ZM195.4 77.672L196.173 78.3059L196.771 77.5767L196.078 76.9372L195.4 77.672ZM182.088 65.384L182.766 64.6492L182.004 63.9455L181.329 64.7332L182.088 65.384ZM171.848 73.448L172.262 74.3584L172.27 74.3545L172.279 74.3505L171.848 73.448ZM138.952 68.072L139.659 67.3649L139.659 67.3649L138.952 68.072ZM132.936 58.984L132.004 59.3475L132.008 59.3573L132.012 59.367L132.936 58.984ZM132.936 35.688L132.012 35.305L132.008 35.3147L132.004 35.3245L132.936 35.688ZM138.952 26.6L139.659 27.3071L139.659 27.3071L138.952 26.6ZM171.848 21.352L171.417 22.2545L171.426 22.2585L171.434 22.2624L171.848 21.352ZM182.088 29.16L181.337 29.8198L182.013 30.5902L182.766 29.8948L182.088 29.16ZM195.4 16.872L196.078 17.6068L196.771 16.9673L196.173 16.2381L195.4 16.872ZM179.528 5.096L179.127 6.01187L179.134 6.01517L179.142 6.01834L179.528 5.096ZM139.208 4.45599L139.561 5.39184L139.572 5.38724L139.208 4.45599ZM125.184 12.7348H124.184V14.9203L125.838 13.4915L125.184 12.7348ZM125.184 2.536H126.184V1.536H125.184V2.536ZM49.792 2.536V1.536H48.792V2.536H49.792ZM49.792 19.432H48.792V20.432H49.792V19.432ZM97.9276 19.432L98.6972 20.0704L100.056 18.432H97.9276V19.432ZM48.768 78.696L47.9983 78.0576L47.768 78.3352V78.696H48.768ZM48.768 92.136H47.768V93.136H48.768V92.136ZM127.104 92.136V93.136H128.104V92.136H127.104ZM127.104 83.5572L127.721 82.7705L126.104 81.5011V83.5572H127.104ZM118.94 75.24V76.24H120.95L119.738 74.637L118.94 75.24ZM113.48 65.896L112.559 66.2866L112.564 66.2983L113.48 65.896ZM112.502 31.2997L113.446 31.6314L111.732 30.6621L112.502 31.2997ZM76.1379 75.24L75.3675 74.6024L74.0123 76.24H76.1379V75.24ZM158.408 92.672C151.605 92.672 145.281 91.5805 139.428 89.4066L138.732 91.2814C144.826 93.5449 151.387 94.672 158.408 94.672V92.672ZM179.127 88.6601C173.042 91.3274 166.142 92.672 158.408 92.672V94.672C166.376 94.672 173.555 93.2859 179.929 90.4919L179.127 88.6601ZM194.627 77.0381C190.463 82.1173 185.303 85.9893 179.131 88.6581L179.925 90.4939C186.383 87.7014 191.803 83.6374 196.173 78.3059L194.627 77.0381ZM181.41 66.1188L194.722 78.4068L196.078 76.9372L182.766 64.6492L181.41 66.1188ZM172.279 74.3505C176.175 72.4908 179.697 69.7104 182.847 66.0348L181.329 64.7332C178.335 68.2256 175.03 70.8212 171.417 72.5455L172.279 74.3505ZM159.56 77.008C164.129 77.008 168.368 76.1285 172.262 74.3584L171.434 72.5376C167.819 74.1808 163.866 75.008 159.56 75.008V77.008ZM147.676 74.8916C151.303 76.307 155.268 77.008 159.56 77.008V75.008C155.489 75.008 151.774 74.3437 148.404 73.0284L147.676 74.8916ZM138.245 68.7791C140.906 71.4406 144.054 73.4779 147.676 74.8916L148.404 73.0284C145.029 71.7114 142.118 69.8235 139.659 67.3649L138.245 68.7791ZM132.012 59.367C133.511 62.9812 135.588 66.1221 138.245 68.7791L139.659 67.3649C137.196 64.9019 135.262 61.9841 133.86 58.601L132.012 59.367ZM129.888 47.336C129.888 51.7103 130.588 55.7183 132.004 59.3475L133.868 58.6205C132.553 55.2523 131.888 51.4951 131.888 47.336H129.888ZM132.004 35.3245C130.588 38.9537 129.888 42.9617 129.888 47.336H131.888C131.888 43.1769 132.553 39.4197 133.868 36.0515L132.004 35.3245ZM138.245 25.8929C135.588 28.5499 133.511 31.6908 132.012 35.305L133.86 36.071C135.262 32.6879 137.196 29.7701 139.659 27.3071L138.245 25.8929ZM147.676 19.7804C144.054 21.1941 140.906 23.2314 138.245 25.8929L139.659 27.3071C142.118 24.8485 145.029 22.9606 148.404 21.6436L147.676 19.7804ZM159.56 17.664C155.268 17.664 151.303 18.365 147.676 19.7804L148.404 21.6436C151.774 20.3283 155.489 19.664 159.56 19.664V17.664ZM172.279 20.4495C168.381 18.5891 164.136 17.664 159.56 17.664V19.664C163.858 19.664 167.806 20.5309 171.417 22.2545L172.279 20.4495ZM182.839 28.5002C179.686 24.9088 176.161 22.2141 172.262 20.4416L171.434 22.2624C175.044 23.9033 178.346 26.4139 181.337 29.8198L182.839 28.5002ZM194.722 16.1372L181.41 28.4252L182.766 29.8948L196.078 17.6068L194.722 16.1372ZM179.142 6.01834C185.308 8.6017 190.465 12.4291 194.627 17.5059L196.173 16.2381C191.801 10.9042 186.377 6.88096 179.914 4.17366L179.142 6.01834ZM158.536 2C166.183 2 173.04 3.34402 179.127 6.01187L179.929 4.18013C173.557 1.38665 166.42 0 158.536 0V2ZM139.572 5.38724C145.332 3.13328 151.65 2 158.536 2V0C151.427 0 144.859 1.17071 138.844 3.52475L139.572 5.38724ZM125.838 13.4915C129.843 10.0309 134.415 7.33069 139.561 5.39176L138.855 3.52022C133.498 5.5391 128.72 8.35806 124.53 11.9781L125.838 13.4915ZM124.184 2.536V12.7348H126.184V2.536H124.184ZM49.792 3.536H125.184V1.536H49.792V3.536ZM50.792 19.432V2.536H48.792V19.432H50.792ZM97.9276 18.432H49.792V20.432H97.9276V18.432ZM49.5376 79.3344L98.6972 20.0704L97.1579 18.7936L47.9983 78.0576L49.5376 79.3344ZM49.768 92.136V78.696H47.768V92.136H49.768ZM127.104 91.136H48.768V93.136H127.104V91.136ZM126.104 83.5572V92.136H128.104V83.5572H126.104ZM139.444 89.4128C135.105 87.7146 131.199 85.4999 127.721 82.7705L126.487 84.3438C130.125 87.1998 134.203 89.5096 138.716 91.2752L139.444 89.4128ZM119.738 74.637C117.629 71.8468 115.848 68.7998 114.396 65.4937L112.564 66.2983C114.078 69.7425 115.937 72.9248 118.143 75.843L119.738 74.637ZM114.401 65.5054C112.069 60.009 110.896 53.9569 110.896 47.336H108.896C108.896 54.1978 110.113 60.519 112.559 66.2865L114.401 65.5054ZM110.896 47.336C110.896 41.6892 111.749 36.457 113.446 31.6314L111.559 30.968C109.78 36.0265 108.896 41.4852 108.896 47.336H110.896ZM111.732 30.6621L75.3675 74.6024L76.9083 75.8776L113.273 31.9372L111.732 30.6621ZM76.1379 76.24H118.94V74.24H76.1379V76.24Z" fill="black" mask="url(#path-1-outside-1_25_12)"/>
</g>
<mask id="path-3-outside-2_25_12" maskUnits="userSpaceOnUse" x="4" y="1.48798" width="32" height="93" fill="black">
<rect fill="white" x="4" y="1.48798" width="32" height="93"/>
<path d="M29.3224 93.112C23.9464 93.112 19.8824 91.768 17.1304 89.08C14.3784 86.392 13.0024 82.52 13.0024 77.464V57.688C13.0024 56.088 12.6184 54.936 11.8504 54.232C11.0824 53.464 10.0264 53.08 8.68238 53.08H5.51438V43.288H8.68238C10.0264 43.288 11.0824 42.904 11.8504 42.136C12.6184 41.368 13.0024 40.216 13.0024 38.68V18.904C13.0024 13.784 14.3784 9.91197 17.1304 7.28797C19.8824 4.59997 23.9464 3.25597 29.3224 3.25597H34.1224V12.856H32.1064C29.7384 12.856 27.9464 13.496 26.7304 14.776C25.5784 16.056 25.0024 17.848 25.0024 20.152V38.392C25.0024 40.952 24.6824 42.936 24.0424 44.344C23.4024 45.752 22.3784 46.808 20.9704 47.512C19.6264 48.152 17.8664 48.632 15.6904 48.952V47.416C17.8664 47.672 19.6264 48.152 20.9704 48.856C22.3784 49.56 23.4024 50.616 24.0424 52.024C24.6824 53.432 25.0024 55.416 25.0024 57.976V76.216C25.0024 78.52 25.5784 80.312 26.7304 81.592C27.9464 82.872 29.7384 83.512 32.1064 83.512H34.1224V93.112H29.3224Z"/>
</mask>
<path d="M29.3224 93.112C23.9464 93.112 19.8824 91.768 17.1304 89.08C14.3784 86.392 13.0024 82.52 13.0024 77.464V57.688C13.0024 56.088 12.6184 54.936 11.8504 54.232C11.0824 53.464 10.0264 53.08 8.68238 53.08H5.51438V43.288H8.68238C10.0264 43.288 11.0824 42.904 11.8504 42.136C12.6184 41.368 13.0024 40.216 13.0024 38.68V18.904C13.0024 13.784 14.3784 9.91197 17.1304 7.28797C19.8824 4.59997 23.9464 3.25597 29.3224 3.25597H34.1224V12.856H32.1064C29.7384 12.856 27.9464 13.496 26.7304 14.776C25.5784 16.056 25.0024 17.848 25.0024 20.152V38.392C25.0024 40.952 24.6824 42.936 24.0424 44.344C23.4024 45.752 22.3784 46.808 20.9704 47.512C19.6264 48.152 17.8664 48.632 15.6904 48.952V47.416C17.8664 47.672 19.6264 48.152 20.9704 48.856C22.3784 49.56 23.4024 50.616 24.0424 52.024C24.6824 53.432 25.0024 55.416 25.0024 57.976V76.216C25.0024 78.52 25.5784 80.312 26.7304 81.592C27.9464 82.872 29.7384 83.512 32.1064 83.512H34.1224V93.112H29.3224Z" fill="white"/>
<path d="M17.1304 89.08L17.8291 88.3646L17.8291 88.3646L17.1304 89.08ZM11.8504 54.232L11.1433 54.9391L11.1586 54.9544L11.1747 54.9691L11.8504 54.232ZM5.51438 53.08H4.51438V54.08H5.51438V53.08ZM5.51438 43.288V42.288H4.51438V43.288H5.51438ZM11.8504 42.136L12.5575 42.8431L12.5575 42.8431L11.8504 42.136ZM17.1304 7.28797L17.8205 8.01176L17.8291 8.00335L17.1304 7.28797ZM34.1224 3.25597H35.1224V2.25597H34.1224V3.25597ZM34.1224 12.856V13.856H35.1224V12.856H34.1224ZM26.7304 14.776L26.0054 14.0872L25.9961 14.097L25.9871 14.107L26.7304 14.776ZM24.0424 44.344L24.9527 44.7578L24.9527 44.7578L24.0424 44.344ZM20.9704 47.512L21.4003 48.4148L21.409 48.4107L21.4176 48.4064L20.9704 47.512ZM15.6904 48.952H14.6904V50.1098L15.8359 49.9413L15.6904 48.952ZM15.6904 47.416L15.8072 46.4228L14.6904 46.2914V47.416H15.6904ZM20.9704 48.856L20.5064 49.7418L20.5147 49.7462L20.5232 49.7504L20.9704 48.856ZM26.7304 81.592L25.9871 82.2609L25.9961 82.271L26.0054 82.2807L26.7304 81.592ZM34.1224 83.512H35.1224V82.512H34.1224V83.512ZM34.1224 93.112V94.112H35.1224V93.112H34.1224ZM29.3224 92.112C24.1025 92.112 20.3307 90.808 17.8291 88.3646L16.4316 89.7954C19.4341 92.728 23.7903 94.112 29.3224 94.112V92.112ZM17.8291 88.3646C15.3248 85.9186 14.0024 82.3389 14.0024 77.464H12.0024C12.0024 82.7011 13.4319 86.8654 16.4316 89.7954L17.8291 88.3646ZM14.0024 77.464V57.688H12.0024V77.464H14.0024ZM14.0024 57.688C14.0024 55.9567 13.5896 54.4697 12.5261 53.4948L11.1747 54.9691C11.6471 55.4022 12.0024 56.2193 12.0024 57.688H14.0024ZM12.5575 53.5249C11.5595 52.5269 10.2249 52.08 8.68238 52.08V54.08C9.8279 54.08 10.6052 54.4011 11.1433 54.9391L12.5575 53.5249ZM8.68238 52.08H5.51438V54.08H8.68238V52.08ZM6.51438 53.08V43.288H4.51438V53.08H6.51438ZM5.51438 44.288H8.68238V42.288H5.51438V44.288ZM8.68238 44.288C10.2249 44.288 11.5595 43.8411 12.5575 42.8431L11.1433 41.4289C10.6052 41.9669 9.8279 42.288 8.68238 42.288V44.288ZM12.5575 42.8431C13.5792 41.8214 14.0024 40.3701 14.0024 38.68H12.0024C12.0024 40.0618 11.6576 40.9145 11.1433 41.4289L12.5575 42.8431ZM14.0024 38.68V18.904H12.0024V38.68H14.0024ZM14.0024 18.904C14.0024 13.9592 15.3277 10.3885 17.8205 8.01171L16.4403 6.56423C13.429 9.43546 12.0024 13.6088 12.0024 18.904H14.0024ZM17.8291 8.00335C20.3307 5.55999 24.1025 4.25597 29.3224 4.25597V2.25597C23.7903 2.25597 19.4341 3.63996 16.4316 6.5726L17.8291 8.00335ZM29.3224 4.25597H34.1224V2.25597H29.3224V4.25597ZM33.1224 3.25597V12.856H35.1224V3.25597H33.1224ZM34.1224 11.856H32.1064V13.856H34.1224V11.856ZM32.1064 11.856C29.5615 11.856 27.468 12.5476 26.0054 14.0872L27.4554 15.4647C28.4247 14.4444 29.9153 13.856 32.1064 13.856V11.856ZM25.9871 14.107C24.6207 15.6252 24.0024 17.6857 24.0024 20.152H26.0024C26.0024 18.0102 26.536 16.4868 27.4737 15.4449L25.9871 14.107ZM24.0024 20.152V38.392H26.0024V20.152H24.0024ZM24.0024 38.392C24.0024 40.891 23.6865 42.7102 23.132 43.9302L24.9527 44.7578C25.6782 43.1617 26.0024 41.0129 26.0024 38.392H24.0024ZM23.132 43.9302C22.5886 45.1256 21.7303 46.014 20.5232 46.6175L21.4176 48.4064C23.0265 47.602 24.2161 46.3783 24.9527 44.7578L23.132 43.9302ZM20.5404 46.6091C19.3183 47.1911 17.6646 47.6509 15.5449 47.9626L15.8359 49.9413C18.0681 49.6131 19.9345 49.1128 21.4003 48.4148L20.5404 46.6091ZM16.6904 48.952V47.416H14.6904V48.952H16.6904ZM15.5735 48.4091C17.6775 48.6567 19.3072 49.1137 20.5064 49.7418L21.4344 47.9701C19.9455 47.1903 18.0552 46.6873 15.8072 46.4228L15.5735 48.4091ZM20.5232 49.7504C21.7303 50.354 22.5886 51.2423 23.132 52.4378L24.9527 51.6102C24.2161 49.9896 23.0265 48.766 21.4176 47.9615L20.5232 49.7504ZM23.132 52.4378C23.6865 53.6577 24.0024 55.4769 24.0024 57.976H26.0024C26.0024 55.355 25.6782 53.2062 24.9527 51.6102L23.132 52.4378ZM24.0024 57.976V76.216H26.0024V57.976H24.0024ZM24.0024 76.216C24.0024 78.6822 24.6207 80.7428 25.9871 82.2609L27.4737 80.923C26.536 79.8812 26.0024 78.3577 26.0024 76.216H24.0024ZM26.0054 82.2807C27.468 83.8204 29.5615 84.512 32.1064 84.512V82.512C29.9153 82.512 28.4247 81.9236 27.4554 80.9032L26.0054 82.2807ZM32.1064 84.512H34.1224V82.512H32.1064V84.512ZM33.1224 83.512V93.112H35.1224V83.512H33.1224ZM34.1224 92.112H29.3224V94.112H34.1224V92.112Z" fill="black" mask="url(#path-3-outside-2_25_12)"/>
<mask id="path-5-outside-3_25_12" maskUnits="userSpaceOnUse" x="211" y="1.48798" width="32" height="93" fill="black">
<rect fill="white" x="211" y="1.48798" width="32" height="93"/>
<path d="M217.432 93.112H212.632V83.512H214.648C217.08 83.512 218.872 82.872 220.024 81.592C221.24 80.312 221.848 78.52 221.848 76.216V57.976C221.848 55.416 222.168 53.432 222.808 52.024C223.512 50.616 224.536 49.56 225.88 48.856C227.224 48.152 228.952 47.672 231.064 47.416V48.952C228.952 48.632 227.224 48.152 225.88 47.512C224.536 46.808 223.512 45.752 222.808 44.344C222.168 42.936 221.848 40.952 221.848 38.392V20.152C221.848 17.848 221.24 16.056 220.024 14.776C218.872 13.496 217.08 12.856 214.648 12.856H212.632V3.25597H217.432C222.872 3.25597 226.968 4.59997 229.72 7.28797C232.472 9.91197 233.848 13.784 233.848 18.904V38.68C233.848 40.216 234.232 41.368 235 42.136C235.768 42.904 236.792 43.288 238.072 43.288H241.336V53.08H238.072C236.792 53.08 235.768 53.464 235 54.232C234.232 54.936 233.848 56.088 233.848 57.688V77.464C233.848 82.52 232.472 86.392 229.72 89.08C226.968 91.768 222.872 93.112 217.432 93.112Z"/>
</mask>
<path d="M217.432 93.112H212.632V83.512H214.648C217.08 83.512 218.872 82.872 220.024 81.592C221.24 80.312 221.848 78.52 221.848 76.216V57.976C221.848 55.416 222.168 53.432 222.808 52.024C223.512 50.616 224.536 49.56 225.88 48.856C227.224 48.152 228.952 47.672 231.064 47.416V48.952C228.952 48.632 227.224 48.152 225.88 47.512C224.536 46.808 223.512 45.752 222.808 44.344C222.168 42.936 221.848 40.952 221.848 38.392V20.152C221.848 17.848 221.24 16.056 220.024 14.776C218.872 13.496 217.08 12.856 214.648 12.856H212.632V3.25597H217.432C222.872 3.25597 226.968 4.59997 229.72 7.28797C232.472 9.91197 233.848 13.784 233.848 18.904V38.68C233.848 40.216 234.232 41.368 235 42.136C235.768 42.904 236.792 43.288 238.072 43.288H241.336V53.08H238.072C236.792 53.08 235.768 53.464 235 54.232C234.232 54.936 233.848 56.088 233.848 57.688V77.464C233.848 82.52 232.472 86.392 229.72 89.08C226.968 91.768 222.872 93.112 217.432 93.112Z" fill="white"/>
<path d="M212.632 93.112H211.632V94.112H212.632V93.112ZM212.632 83.512V82.512H211.632V83.512H212.632ZM220.024 81.592L219.299 80.9032L219.29 80.913L219.281 80.923L220.024 81.592ZM222.808 52.024L221.914 51.5768L221.905 51.5933L221.898 51.6102L222.808 52.024ZM225.88 48.856L225.416 47.9701L225.416 47.9701L225.88 48.856ZM231.064 47.416H232.064V46.2874L230.944 46.4232L231.064 47.416ZM231.064 48.952L230.914 49.9407L232.064 50.1149V48.952H231.064ZM225.88 47.512L225.416 48.3978L225.433 48.4066L225.45 48.4148L225.88 47.512ZM222.808 44.344L221.898 44.7578L221.905 44.7746L221.914 44.7912L222.808 44.344ZM220.024 14.776L219.281 15.4449L219.29 15.455L219.299 15.4647L220.024 14.776ZM212.632 12.856H211.632V13.856H212.632V12.856ZM212.632 3.25597V2.25597H211.632V3.25597H212.632ZM229.72 7.28797L229.021 8.0034L229.03 8.01171L229.72 7.28797ZM235 42.136L234.293 42.8431L234.293 42.8431L235 42.136ZM241.336 43.288H242.336V42.288H241.336V43.288ZM241.336 53.08V54.08H242.336V53.08H241.336ZM235 54.232L235.676 54.9691L235.692 54.9544L235.707 54.9391L235 54.232ZM229.72 89.08L230.419 89.7954L230.419 89.7954L229.72 89.08ZM217.432 92.112H212.632V94.112H217.432V92.112ZM213.632 93.112V83.512H211.632V93.112H213.632ZM212.632 84.512H214.648V82.512H212.632V84.512ZM214.648 84.512C217.243 84.512 219.358 83.827 220.767 82.2609L219.281 80.923C218.386 81.917 216.917 82.512 214.648 82.512V84.512ZM220.749 82.2807C222.19 80.7636 222.848 78.6956 222.848 76.216H220.848C220.848 78.3444 220.29 79.8604 219.299 80.9032L220.749 82.2807ZM222.848 76.216V57.976H220.848V76.216H222.848ZM222.848 57.976C222.848 55.4769 223.164 53.6577 223.718 52.4378L221.898 51.6102C221.172 53.2062 220.848 55.355 220.848 57.976H222.848ZM223.702 52.4712C224.316 51.2434 225.193 50.3446 226.344 49.7418L225.416 47.9701C223.879 48.7754 222.708 49.9885 221.914 51.5768L223.702 52.4712ZM226.344 49.7418C227.547 49.1116 229.148 48.6556 231.184 48.4087L230.944 46.4232C228.756 46.6884 226.901 47.1924 225.416 47.9701L226.344 49.7418ZM230.064 47.416V48.952H232.064V47.416H230.064ZM231.214 47.9633C229.161 47.6522 227.536 47.1929 226.31 46.6091L225.45 48.4148C226.912 49.111 228.744 49.6118 230.914 49.9407L231.214 47.9633ZM226.344 46.6261C225.193 46.0234 224.316 45.1245 223.702 43.8968L221.914 44.7912C222.708 46.3794 223.879 47.5926 225.416 48.3978L226.344 46.6261ZM223.718 43.9302C223.164 42.7102 222.848 40.891 222.848 38.392H220.848C220.848 41.0129 221.172 43.1617 221.898 44.7578L223.718 43.9302ZM222.848 38.392V20.152H220.848V38.392H222.848ZM222.848 20.152C222.848 17.6724 222.19 15.6044 220.749 14.0872L219.299 15.4647C220.29 16.5076 220.848 18.0236 220.848 20.152H222.848ZM220.767 14.107C219.358 12.541 217.243 11.856 214.648 11.856V13.856C216.917 13.856 218.386 14.451 219.281 15.4449L220.767 14.107ZM214.648 11.856H212.632V13.856H214.648V11.856ZM213.632 12.856V3.25597H211.632V12.856H213.632ZM212.632 4.25597H217.432V2.25597H212.632V4.25597ZM217.432 4.25597C222.72 4.25597 226.522 5.56193 229.021 8.00335L230.419 6.5726C227.414 3.63801 223.024 2.25597 217.432 2.25597V4.25597ZM229.03 8.01171C231.523 10.3885 232.848 13.9592 232.848 18.904H234.848C234.848 13.6088 233.421 9.43546 230.41 6.56423L229.03 8.01171ZM232.848 18.904V38.68H234.848V18.904H232.848ZM232.848 38.68C232.848 40.3701 233.271 41.8214 234.293 42.8431L235.707 41.4289C235.193 40.9145 234.848 40.0618 234.848 38.68H232.848ZM234.293 42.8431C235.282 43.8318 236.578 44.288 238.072 44.288V42.288C237.006 42.288 236.254 41.9761 235.707 41.4289L234.293 42.8431ZM238.072 44.288H241.336V42.288H238.072V44.288ZM240.336 43.288V53.08H242.336V43.288H240.336ZM241.336 52.08H238.072V54.08H241.336V52.08ZM238.072 52.08C236.578 52.08 235.282 52.5361 234.293 53.5249L235.707 54.9391C236.254 54.3918 237.006 54.08 238.072 54.08V52.08ZM234.324 53.4948C233.261 54.4697 232.848 55.9567 232.848 57.688H234.848C234.848 56.2193 235.203 55.4022 235.676 54.9691L234.324 53.4948ZM232.848 57.688V77.464H234.848V57.688H232.848ZM232.848 77.464C232.848 82.3389 231.526 85.9186 229.021 88.3646L230.419 89.7954C233.418 86.8654 234.848 82.7011 234.848 77.464H232.848ZM229.021 88.3646C226.522 90.806 222.72 92.112 217.432 92.112V94.112C223.024 94.112 227.414 92.7299 230.419 89.7954L229.021 88.3646Z" fill="black" mask="url(#path-5-outside-3_25_12)"/>
<defs>
<filter id="filter0_d_25_12" x="43.768" y="0" width="157.003" height="102.672" filterUnits="userSpaceOnUse" color-interpolation-filters="sRGB">
<feFlood flood-opacity="0" result="BackgroundImageFix"/>
<feColorMatrix in="SourceAlpha" type="matrix" values="0 0 0 0 0 0 0 0 0 0 0 0 0 0 0 0 0 0 127 0" result="hardAlpha"/>
<feOffset dy="4"/>
<feGaussianBlur stdDeviation="2"/>
<feComposite in2="hardAlpha" operator="out"/>
<feColorMatrix type="matrix" values="0 0 0 0 0 0 0 0 0 0 0 0 0 0 0 0 0 0 0.25 0"/>
<feBlend mode="normal" in2="BackgroundImageFix" result="effect1_dropShadow_25_12"/>
<feBlend mode="normal" in="SourceGraphic" in2="effect1_dropShadow_25_12" result="shape"/>
</filter>
</defs>
</svg>
