<svg width="242" height="242" viewBox="0 0 242 242" fill="none" xmlns="http://www.w3.org/2000/svg">
<mask id="path-1-outside-1_10_7" maskUnits="userSpaceOnUse" x="6.10294" y="57.7992" width="231.784" height="135.007" fill="black">
<rect fill="white" x="6.10294" y="57.7992" width="231.784" height="135.007"/>
<path d="M51.3444 179.657L37.4158 131.682L18.4202 137.197L14.393 123.326L69.7895 107.242L73.8167 121.114L54.9095 126.603L68.838 174.578L51.3444 179.657ZM88.078 168.992L70.1222 107.146L84.5235 102.965L122.355 137.581L114.757 139.787L127.462 90.4982L141.864 86.3171L159.996 148.112L143.916 152.781L132.889 115.459L135.628 114.664L126.066 151.353L118.291 153.61L90.0386 127.9L93.3959 126.925L104.246 164.298L88.078 168.992ZM166.19 146.314L148.234 84.4676L177.478 75.9771C184.311 73.9934 190.687 73.5155 196.605 74.5434C202.524 75.5713 207.593 77.9634 211.813 81.7198C216.092 85.459 219.155 90.5093 221.002 96.8706C222.832 103.173 222.95 109.078 221.355 114.587C219.803 120.019 216.803 124.754 212.355 128.791C207.907 132.829 202.267 135.84 195.434 137.823L166.19 146.314ZM179.631 127.275L190.675 124.069C194.209 123.043 197.083 121.506 199.299 119.458C201.556 117.333 203.053 114.791 203.79 111.831C204.511 108.812 204.358 105.535 203.332 102.001C202.288 98.4079 200.663 95.5588 198.455 93.4536C196.247 91.3483 193.63 90.0326 190.603 89.5063C187.618 88.904 184.359 89.1159 180.825 90.1419L169.781 93.3483L179.631 127.275Z"/>
</mask>
<path d="M51.3444 179.657L37.4158 131.682L18.4202 137.197L14.393 123.326L69.7895 107.242L73.8167 121.114L54.9095 126.603L68.838 174.578L51.3444 179.657ZM88.078 168.992L70.1222 107.146L84.5235 102.965L122.355 137.581L114.757 139.787L127.462 90.4982L141.864 86.3171L159.996 148.112L143.916 152.781L132.889 115.459L135.628 114.664L126.066 151.353L118.291 153.61L90.0386 127.9L93.3959 126.925L104.246 164.298L88.078 168.992ZM166.19 146.314L148.234 84.4676L177.478 75.9771C184.311 73.9934 190.687 73.5155 196.605 74.5434C202.524 75.5713 207.593 77.9634 211.813 81.7198C216.092 85.459 219.155 90.5093 221.002 96.8706C222.832 103.173 222.95 109.078 221.355 114.587C219.803 120.019 216.803 124.754 212.355 128.791C207.907 132.829 202.267 135.84 195.434 137.823L166.19 146.314ZM179.631 127.275L190.675 124.069C194.209 123.043 197.083 121.506 199.299 119.458C201.556 117.333 203.053 114.791 203.79 111.831C204.511 108.812 204.358 105.535 203.332 102.001C202.288 98.4079 200.663 95.5588 198.455 93.4536C196.247 91.3483 193.63 90.0326 190.603 89.5063C187.618 88.904 184.359 89.1159 180.825 90.1419L169.781 93.3483L179.631 127.275Z" fill="white"/>
<path d="M51.3444 179.657L45.5823 181.33L47.2552 187.092L53.0173 185.419L51.3444 179.657ZM37.4158 131.682L43.1779 130.009L41.505 124.247L35.7429 125.92L37.4158 131.682ZM18.4202 137.197L12.6582 138.87L14.331 144.632L20.0931 142.959L18.4202 137.197ZM14.393 123.326L12.7201 117.564L6.95803 119.236L8.63093 124.999L14.393 123.326ZM69.7895 107.242L75.5516 105.57L73.8787 99.8074L68.1166 101.48L69.7895 107.242ZM73.8167 121.114L75.4896 126.876L81.2517 125.203L79.5788 119.441L73.8167 121.114ZM54.9095 126.603L53.2366 120.841L47.4745 122.514L49.1474 128.276L54.9095 126.603ZM68.838 174.578L70.5109 180.34L76.273 178.667L74.6001 172.905L68.838 174.578ZM57.1064 177.984L43.1779 130.009L31.6538 133.355L45.5823 181.33L57.1064 177.984ZM35.7429 125.92L16.7473 131.435L20.0931 142.959L39.0887 137.444L35.7429 125.92ZM24.1823 135.524L20.1551 121.653L8.63093 124.999L12.6582 138.87L24.1823 135.524ZM16.0659 129.088L71.4624 113.004L68.1166 101.48L12.7201 117.564L16.0659 129.088ZM64.0274 108.915L68.0547 122.787L79.5788 119.441L75.5516 105.57L64.0274 108.915ZM72.1438 115.352L53.2366 120.841L56.5824 132.365L75.4896 126.876L72.1438 115.352ZM49.1474 128.276L63.0759 176.251L74.6001 172.905L60.6715 124.93L49.1474 128.276ZM67.1651 168.816L49.6715 173.895L53.0173 185.419L70.5109 180.34L67.1651 168.816ZM88.078 168.992L82.3159 170.665L83.9888 176.427L89.7509 174.754L88.078 168.992ZM70.1222 107.146L68.4493 101.384L62.6872 103.057L64.3601 108.819L70.1222 107.146ZM84.5235 102.965L88.5739 98.5381L86.0874 96.2629L82.8506 97.2026L84.5235 102.965ZM122.355 137.581L124.028 143.343L134.286 140.365L126.406 133.155L122.355 137.581ZM114.757 139.787L108.947 138.29L106.319 148.485L116.43 145.549L114.757 139.787ZM127.462 90.4982L125.79 84.7362L122.506 85.6895L121.652 89.0006L127.462 90.4982ZM141.864 86.3171L147.621 84.6278L145.937 78.8869L140.191 80.5551L141.864 86.3171ZM159.996 148.112L161.669 153.874L167.448 152.196L165.754 146.423L159.996 148.112ZM143.916 152.781L138.162 154.481L139.854 160.208L145.589 158.543L143.916 152.781ZM132.889 115.459L131.216 109.697L125.427 111.378L127.135 117.159L132.889 115.459ZM135.628 114.664L141.434 116.177L144.098 105.957L133.955 108.902L135.628 114.664ZM126.066 151.353L127.739 157.115L131.013 156.164L131.872 152.866L126.066 151.353ZM118.291 153.61L114.253 158.048L116.738 160.309L119.964 159.372L118.291 153.61ZM90.0386 127.9L88.3657 122.138L78.0751 125.125L86.0003 132.337L90.0386 127.9ZM93.3959 126.925L99.158 125.252L97.4851 119.49L91.723 121.163L93.3959 126.925ZM104.246 164.298L105.919 170.06L111.681 168.387L110.008 162.625L104.246 164.298ZM93.84 167.319L75.8843 105.473L64.3601 108.819L82.3159 170.665L93.84 167.319ZM71.7951 112.908L86.1964 108.727L82.8506 97.2026L68.4493 101.384L71.7951 112.908ZM80.4732 107.391L118.305 142.008L126.406 133.155L88.5739 98.5381L80.4732 107.391ZM120.683 131.819L113.084 134.025L116.43 145.549L124.028 143.343L120.683 131.819ZM120.567 141.285L133.273 91.9959L121.652 89.0006L108.947 138.29L120.567 141.285ZM129.135 96.2603L143.537 92.0792L140.191 80.5551L125.79 84.7362L129.135 96.2603ZM136.107 88.0065L154.239 149.801L165.754 146.423L147.621 84.6278L136.107 88.0065ZM158.323 142.35L142.243 147.018L145.589 158.543L161.669 153.874L158.323 142.35ZM149.67 151.08L138.643 113.759L127.135 117.159L138.162 154.481L149.67 151.08ZM134.562 121.221L137.301 120.426L133.955 108.902L131.216 109.697L134.562 121.221ZM129.822 113.151L120.26 149.84L131.872 152.866L141.434 116.177L129.822 113.151ZM124.393 145.591L116.618 147.848L119.964 159.372L127.739 157.115L124.393 145.591ZM122.33 149.172L94.0768 123.462L86.0003 132.337L114.253 158.048L122.33 149.172ZM91.7115 133.662L95.0688 132.687L91.723 121.163L88.3657 122.138L91.7115 133.662ZM87.6339 128.598L98.4843 165.971L110.008 162.625L99.158 125.252L87.6339 128.598ZM102.573 158.536L86.4051 163.23L89.7509 174.754L105.919 170.06L102.573 158.536ZM166.19 146.314L160.428 147.987L162.101 153.749L167.863 152.076L166.19 146.314ZM148.234 84.4676L146.561 78.7056L140.799 80.3785L142.472 86.1405L148.234 84.4676ZM196.605 74.5434L195.579 80.4549L195.579 80.4549L196.605 74.5434ZM211.813 81.7198L207.824 86.2015L207.844 86.2197L207.865 86.2378L211.813 81.7198ZM221.355 114.587L215.592 112.919L215.589 112.928L215.586 112.938L221.355 114.587ZM179.631 127.275L173.869 128.948L175.541 134.71L181.304 133.037L179.631 127.275ZM199.299 119.458L203.372 123.863L203.391 123.845L203.411 123.827L199.299 119.458ZM203.79 111.831L209.613 113.281L209.62 113.252L209.627 113.223L203.79 111.831ZM198.455 93.4536L202.596 89.1112L202.596 89.1112L198.455 93.4536ZM190.603 89.5063L189.416 95.3877L189.496 95.4037L189.575 95.4176L190.603 89.5063ZM169.781 93.3483L168.108 87.5862L162.346 89.2591L164.019 95.0212L169.781 93.3483ZM171.952 144.641L153.996 82.7947L142.472 86.1405L160.428 147.987L171.952 144.641ZM149.907 90.2297L179.151 81.7392L175.806 70.2151L146.561 78.7056L149.907 90.2297ZM179.151 81.7392C185.268 79.9635 190.711 79.6095 195.579 80.4549L197.632 68.6319C190.663 67.4216 183.355 68.0234 175.806 70.2151L179.151 81.7392ZM195.579 80.4549C200.469 81.3042 204.492 83.236 207.824 86.2015L215.802 77.2381C210.694 72.6908 204.579 69.8385 197.632 68.6319L195.579 80.4549ZM207.865 86.2378C211.144 89.1035 213.659 93.0983 215.24 98.5435L226.764 95.1977C224.651 87.9203 221.04 81.8146 215.761 77.2018L207.865 86.2378ZM215.24 98.5435C216.8 103.916 216.826 108.653 215.592 112.919L227.119 116.255C229.073 109.504 228.864 102.43 226.764 95.1977L215.24 98.5435ZM215.586 112.938C214.361 117.226 211.997 121.013 208.322 124.349L216.388 133.234C221.609 128.495 225.245 122.811 227.124 116.235L215.586 112.938ZM208.322 124.349C204.664 127.67 199.877 130.286 193.761 132.061L197.107 143.585C204.656 141.394 211.15 137.988 216.388 133.234L208.322 124.349ZM193.761 132.061L164.517 140.552L167.863 152.076L197.107 143.585L193.761 132.061ZM181.304 133.037L192.347 129.831L189.002 118.307L177.958 121.513L181.304 133.037ZM192.347 129.831C196.583 128.601 200.339 126.668 203.372 123.863L195.226 115.052C193.828 116.344 191.835 117.484 189.002 118.307L192.347 129.831ZM203.411 123.827C206.492 120.927 208.593 117.377 209.613 113.281L197.968 110.381C197.514 112.205 196.62 113.739 195.187 115.088L203.411 123.827ZM209.627 113.223C210.629 109.02 210.355 104.674 209.094 100.328L197.569 103.674C198.36 106.396 198.392 108.603 197.954 110.439L209.627 113.223ZM209.094 100.328C207.822 95.9467 205.726 92.0962 202.596 89.1112L194.315 97.7959C195.6 99.0214 196.755 100.869 197.569 103.674L209.094 100.328ZM202.596 89.1112C199.522 86.1803 195.819 84.3232 191.631 83.595L189.575 95.4176C191.441 95.742 192.973 96.5163 194.315 97.7959L202.596 89.1112ZM191.79 83.6248C187.678 82.7951 183.423 83.1396 179.152 84.3798L182.497 95.904C185.294 95.0921 187.559 95.0129 189.416 95.3877L191.79 83.6248ZM179.152 84.3798L168.108 87.5862L171.453 99.1104L182.497 95.904L179.152 84.3798ZM164.019 95.0212L173.869 128.948L185.393 125.602L175.543 91.6754L164.019 95.0212Z" fill="black" mask="url(#path-1-outside-1_10_7)"/>
<circle cx="121" cy="121" r="110.5" stroke="white" stroke-width="21"/>
<path d="M99.7578 190.184C98.9335 190.43 98.108 190.566 97.2814 190.593C96.4615 190.607 95.7634 190.523 95.1872 190.34L95.4968 187.963C96.0329 188.116 96.6218 188.202 97.2635 188.219C97.9119 188.224 98.5285 188.14 99.1131 187.966C99.5061 187.849 99.8124 187.721 100.032 187.583C100.249 187.435 100.393 187.288 100.464 187.141C100.542 186.983 100.557 186.822 100.508 186.659C100.44 186.429 100.28 186.278 100.029 186.207C99.7784 186.135 99.4725 186.106 99.1113 186.12C98.7502 186.133 98.3507 186.158 97.9129 186.195C97.4847 186.228 97.0446 186.239 96.5925 186.228C96.15 186.214 95.7297 186.151 95.3314 186.04C94.9304 185.919 94.573 185.718 94.2595 185.436C93.9431 185.144 93.705 184.729 93.5452 184.193C93.3655 183.589 93.3658 182.994 93.5462 182.408C93.7361 181.82 94.1175 181.278 94.6904 180.784C95.2633 180.29 96.0434 179.896 97.0305 179.603C97.6919 179.406 98.3616 179.29 99.0399 179.255C99.7248 179.207 100.359 179.253 100.943 179.393L100.695 181.767C100.139 181.651 99.6076 181.6 99.1009 181.616C98.5913 181.621 98.1161 181.69 97.6752 181.821C97.2822 181.938 96.9788 182.075 96.7649 182.233C96.5481 182.381 96.4069 182.537 96.3414 182.703C96.276 182.869 96.2689 183.038 96.3202 183.21C96.3859 183.431 96.5393 183.578 96.7805 183.652C97.0284 183.714 97.333 183.738 97.6941 183.725C98.062 183.699 98.46 183.669 98.8882 183.635C99.326 183.599 99.7662 183.588 100.209 183.602C100.658 183.604 101.083 183.665 101.484 183.786C101.882 183.897 102.235 184.1 102.542 184.394C102.855 184.677 103.09 185.081 103.247 185.609C103.421 186.193 103.415 186.785 103.228 187.383C103.047 187.969 102.671 188.509 102.098 189.003C101.535 189.494 100.755 189.888 99.7578 190.184ZM104.334 188.603L102.014 180.811L104.746 179.998L107.065 187.79L104.334 188.603ZM103.123 179.542C102.625 179.69 102.181 179.671 101.792 179.484C101.402 179.298 101.146 178.998 101.023 178.586C100.901 178.174 100.951 177.783 101.175 177.414C101.399 177.045 101.761 176.786 102.259 176.638C102.757 176.489 103.2 176.504 103.586 176.681C103.97 176.848 104.223 177.138 104.346 177.55C104.474 177.982 104.428 178.387 104.207 178.765C103.992 179.132 103.631 179.391 103.123 179.542ZM110.551 178.129C111.155 177.949 111.738 177.911 112.301 178.015C112.861 178.109 113.356 178.369 113.785 178.794C114.224 179.216 114.563 179.83 114.803 180.635L116.129 185.092L113.398 185.905L112.204 181.894C112.038 181.338 111.804 180.97 111.499 180.789C111.202 180.596 110.852 180.559 110.449 180.679C110.162 180.765 109.918 180.91 109.719 181.116C109.516 181.312 109.388 181.564 109.333 181.872C109.279 182.18 109.316 182.55 109.444 182.981L110.566 186.748L107.834 187.561L105.515 179.769L108.117 178.994L108.776 181.208L108.08 180.711C108.209 180.057 108.491 179.514 108.926 179.082C109.358 178.641 109.899 178.323 110.551 178.129ZM120.957 183.796C120.095 184.053 119.272 184.11 118.488 183.967C117.715 183.822 117.046 183.504 116.483 183.015C115.917 182.515 115.517 181.873 115.284 181.087C115.05 180.301 115.034 179.549 115.238 178.831C115.442 178.113 115.829 177.487 116.4 176.951C116.978 176.404 117.698 176.002 118.561 175.745C119.442 175.482 120.26 175.442 121.013 175.625C121.767 175.808 122.379 176.199 122.85 176.8L121.058 178.507C120.767 178.197 120.463 178.001 120.147 177.918C119.827 177.825 119.509 177.826 119.193 177.92C118.876 178.014 118.61 178.172 118.394 178.392C118.178 178.613 118.035 178.885 117.964 179.209C117.9 179.52 117.927 179.872 118.044 180.265C118.164 180.668 118.337 180.987 118.563 181.222C118.799 181.454 119.068 181.604 119.37 181.67C119.671 181.737 119.98 181.723 120.297 181.629C120.613 181.535 120.881 181.367 121.101 181.124C121.318 180.871 121.463 180.536 121.537 180.118L123.971 180.567C123.905 181.327 123.607 181.99 123.076 182.555C122.545 183.12 121.839 183.533 120.957 183.796ZM128.63 181.512C127.71 181.786 126.853 181.853 126.06 181.713C125.274 181.561 124.6 181.24 124.037 180.751C123.48 180.249 123.086 179.609 122.855 178.833C122.624 178.057 122.601 177.312 122.785 176.6C122.977 175.875 123.348 175.248 123.9 174.719C124.449 174.18 125.131 173.789 125.946 173.547C126.712 173.318 127.459 173.268 128.186 173.396C128.91 173.515 129.548 173.82 130.102 174.313C130.655 174.805 131.061 175.483 131.317 176.345C131.346 176.441 131.374 176.553 131.401 176.68C131.429 176.808 131.454 176.926 131.475 177.034L125.308 178.87L124.88 177.432L129.595 176.029L128.68 176.739C128.584 176.382 128.426 176.095 128.205 175.879C127.994 175.66 127.742 175.516 127.45 175.446C127.168 175.374 126.864 175.386 126.538 175.483C126.212 175.58 125.946 175.738 125.739 175.956C125.543 176.171 125.417 176.432 125.363 176.741C125.306 177.039 125.33 177.366 125.435 177.721L125.559 178.138C125.674 178.521 125.849 178.829 126.085 179.061C126.33 179.291 126.625 179.438 126.967 179.503C127.307 179.558 127.683 179.524 128.095 179.402C128.479 179.288 128.789 179.138 129.026 178.953C129.27 178.755 129.491 178.501 129.691 178.191L131.574 179.258C131.323 179.782 130.957 180.235 130.476 180.618C129.993 180.991 129.377 181.289 128.63 181.512ZM135.458 179.339L134.927 177.556L137.645 172.912C137.839 172.583 137.97 172.304 138.038 172.076C138.115 171.844 138.15 171.646 138.143 171.481C138.142 171.304 138.122 171.148 138.082 171.014C137.985 170.688 137.799 170.467 137.524 170.351C137.259 170.231 136.911 170.236 136.48 170.364C136.116 170.472 135.8 170.655 135.532 170.912C135.264 171.169 135.078 171.491 134.974 171.877L132.509 171.327C132.695 170.583 133.085 169.914 133.68 169.319C134.275 168.725 135.067 168.281 136.054 167.987C136.83 167.756 137.548 167.678 138.207 167.753C138.865 167.828 139.426 168.047 139.889 168.41C140.361 168.77 140.69 169.262 140.876 169.885C140.973 170.211 141.027 170.55 141.037 170.901C141.045 171.243 140.979 171.633 140.838 172.072C140.704 172.498 140.463 173.002 140.115 173.586L137.946 177.236L137.172 176.371L142.621 174.749L143.293 177.006L135.458 179.339ZM147.617 175.938C146.755 176.195 145.927 176.217 145.133 176.005C144.349 175.789 143.65 175.351 143.035 174.689C142.421 174.026 141.948 173.139 141.617 172.028C141.286 170.916 141.197 169.915 141.349 169.024C141.502 168.134 141.847 167.384 142.386 166.775C142.934 166.163 143.639 165.729 144.502 165.472C145.355 165.218 146.174 165.199 146.958 165.414C147.751 165.627 148.455 166.064 149.07 166.726C149.684 167.388 150.157 168.275 150.488 169.387C150.819 170.499 150.908 171.5 150.756 172.39C150.603 173.281 150.253 174.032 149.705 174.644C149.166 175.253 148.47 175.684 147.617 175.938ZM146.924 173.609C147.231 173.518 147.471 173.342 147.644 173.082C147.826 172.819 147.922 172.457 147.93 171.995C147.936 171.524 147.835 170.938 147.627 170.239C147.416 169.529 147.18 168.984 146.921 168.602C146.661 168.22 146.383 167.969 146.086 167.849C145.799 167.726 145.502 167.71 145.195 167.801C144.889 167.892 144.644 168.07 144.461 168.333C144.288 168.593 144.193 168.955 144.175 169.42C144.166 169.881 144.267 170.467 144.478 171.176C144.687 171.876 144.922 172.421 145.185 172.812C145.454 173.191 145.732 173.442 146.019 173.566C146.316 173.686 146.617 173.701 146.924 173.609ZM151.795 174.476L151.264 172.693L153.982 168.05C154.177 167.72 154.307 167.442 154.375 167.213C154.452 166.981 154.487 166.783 154.48 166.618C154.479 166.441 154.459 166.285 154.419 166.151C154.322 165.825 154.136 165.604 153.861 165.488C153.596 165.368 153.248 165.373 152.817 165.501C152.453 165.61 152.137 165.792 151.869 166.049C151.601 166.306 151.415 166.628 151.311 167.014L148.847 166.464C149.032 165.72 149.422 165.051 150.017 164.456C150.613 163.862 151.404 163.418 152.391 163.124C153.167 162.893 153.885 162.815 154.544 162.89C155.203 162.965 155.763 163.184 156.226 163.547C156.699 163.907 157.027 164.399 157.213 165.022C157.31 165.348 157.364 165.687 157.374 166.038C157.382 166.38 157.316 166.77 157.175 167.209C157.041 167.635 156.8 168.139 156.452 168.723L154.283 172.373L153.509 171.508L158.958 169.886L159.63 172.143L151.795 174.476ZM162.876 171.396C162.177 171.605 161.451 171.727 160.7 171.762C159.959 171.795 159.282 171.731 158.671 171.568L159.068 169.118C159.55 169.267 160.057 169.34 160.589 169.338C161.13 169.334 161.636 169.261 162.105 169.122C162.594 168.976 162.955 168.77 163.188 168.502C163.422 168.234 163.489 167.933 163.389 167.597C163.3 167.3 163.111 167.101 162.82 167C162.526 166.889 162.106 166.915 161.559 167.077L160.366 167.433L159.831 165.636L161.665 161.913L162.229 162.809L157.083 164.341L156.428 162.141L163.702 159.976L164.233 161.759L162.399 165.482L160.769 165.106L161.545 164.875C162.801 164.501 163.834 164.501 164.645 164.876C165.462 165.238 166.002 165.86 166.264 166.741C166.435 167.316 166.438 167.905 166.273 168.507C166.118 169.106 165.767 169.664 165.222 170.182C164.674 170.689 163.892 171.094 162.876 171.396Z" fill="white"/>
</svg>
