<svg width="247" height="102" viewBox="0 0 247 102" fill="none" xmlns="http://www.w3.org/2000/svg">
<g filter="url(#filter0_d_17_76)">
<path fill-rule="evenodd" clip-rule="evenodd" d="M139.08 89.856C145.053 92.0747 151.496 93.184 158.408 93.184C166.259 93.184 173.299 91.8187 179.528 89.088C185.843 86.3574 191.133 82.3894 195.4 77.184L182.088 64.896C179.016 68.48 175.603 71.168 171.848 72.96C168.093 74.6667 163.997 75.52 159.56 75.52C155.379 75.52 151.539 74.8374 148.04 73.472C144.541 72.1067 141.512 70.144 138.952 67.584C136.392 65.024 134.387 61.9947 132.936 58.496C131.571 54.9974 130.888 51.1147 130.888 46.848C130.888 42.5814 131.571 38.6987 132.936 35.2C134.387 31.7014 136.392 28.672 138.952 26.112C141.512 23.552 144.541 21.5894 148.04 20.224C151.539 18.8587 155.379 18.176 159.56 18.176C163.997 18.176 168.093 19.072 171.848 20.864C175.603 22.5707 179.016 25.1734 182.088 28.672L195.4 16.384C191.133 11.1787 185.843 7.25335 179.528 4.60802C173.299 1.87736 166.301 0.512024 158.536 0.512024C151.539 0.512024 145.096 1.66402 139.208 3.96802C135.593 5.33008 132.252 7.06199 129.184 9.16375V2.04802H53.7919V18.944H101.928L52.7679 78.208V91.648H131.104V85.8719C133.584 87.4179 136.243 88.7459 139.08 89.856ZM118.94 74.752C116.783 71.8979 114.963 68.7832 113.48 65.408C111.091 59.776 109.896 53.5894 109.896 46.848C109.896 43.7383 110.15 40.7465 110.659 37.8728L80.1379 74.752H118.94Z" fill="black"/>
</g>
<path d="M29.3224 92.624C23.9464 92.624 19.8824 91.28 17.1304 88.592C14.3784 85.904 13.0024 82.032 13.0024 76.976V57.2C13.0024 55.6 12.6184 54.448 11.8504 53.744C11.0824 52.976 10.0264 52.592 8.68238 52.592H5.51438V42.8H8.68238C10.0264 42.8 11.0824 42.416 11.8504 41.648C12.6184 40.88 13.0024 39.728 13.0024 38.192V18.416C13.0024 13.296 14.3784 9.424 17.1304 6.8C19.8824 4.112 23.9464 2.768 29.3224 2.768H34.1224V12.368H32.1064C29.7384 12.368 27.9464 13.008 26.7304 14.288C25.5784 15.568 25.0024 17.36 25.0024 19.664V37.904C25.0024 40.464 24.6824 42.448 24.0424 43.856C23.4024 45.264 22.3784 46.32 20.9704 47.024C19.6264 47.664 17.8664 48.144 15.6904 48.464V46.928C17.8664 47.184 19.6264 47.664 20.9704 48.368C22.3784 49.072 23.4024 50.128 24.0424 51.536C24.6824 52.944 25.0024 54.928 25.0024 57.488V75.728C25.0024 78.032 25.5784 79.824 26.7304 81.104C27.9464 82.384 29.7384 83.024 32.1064 83.024H34.1224V92.624H29.3224Z" fill="black"/>
<path d="M217.432 92.624H212.632V83.024H214.648C217.08 83.024 218.872 82.384 220.024 81.104C221.24 79.824 221.848 78.032 221.848 75.728V57.488C221.848 54.928 222.168 52.944 222.808 51.536C223.512 50.128 224.536 49.072 225.88 48.368C227.224 47.664 228.952 47.184 231.064 46.928V48.464C228.952 48.144 227.224 47.664 225.88 47.024C224.536 46.32 223.512 45.264 222.808 43.856C222.168 42.448 221.848 40.464 221.848 37.904V19.664C221.848 17.36 221.24 15.568 220.024 14.288C218.872 13.008 217.08 12.368 214.648 12.368H212.632V2.768H217.432C222.872 2.768 226.968 4.112 229.72 6.8C232.472 9.424 233.848 13.296 233.848 18.416V38.192C233.848 39.728 234.232 40.88 235 41.648C235.768 42.416 236.792 42.8 238.072 42.8H241.336V52.592H238.072C236.792 52.592 235.768 52.976 235 53.744C234.232 54.448 233.848 55.6 233.848 57.2V76.976C233.848 82.032 232.472 85.904 229.72 88.592C226.968 91.28 222.872 92.624 217.432 92.624Z" fill="black"/>
<defs>
<filter id="filter0_d_17_76" x="48.7679" y="0.512024" width="150.632" height="100.672" filterUnits="userSpaceOnUse" color-interpolation-filters="sRGB">
<feFlood flood-opacity="0" result="BackgroundImageFix"/>
<feColorMatrix in="SourceAlpha" type="matrix" values="0 0 0 0 0 0 0 0 0 0 0 0 0 0 0 0 0 0 127 0" result="hardAlpha"/>
<feOffset dy="4"/>
<feGaussianBlur stdDeviation="2"/>
<feComposite in2="hardAlpha" operator="out"/>
<feColorMatrix type="matrix" values="0 0 0 0 0 0 0 0 0 0 0 0 0 0 0 0 0 0 0.25 0"/>
<feBlend mode="normal" in2="BackgroundImageFix" result="effect1_dropShadow_17_76"/>
<feBlend mode="normal" in="SourceGraphic" in2="effect1_dropShadow_17_76" result="shape"/>
</filter>
</defs>
</svg>
